<?xml version="1.0" encoding="iso-8859-1"?>
<!-- Generator: Adobe Illustrator 22.0.1, SVG Export Plug-In . SVG Version: 6.00 Build 0)  -->
<svg version="1.1" id="&#x421;&#x43B;&#x43E;&#x439;_1"
	 xmlns="http://www.w3.org/2000/svg" xmlns:xlink="http://www.w3.org/1999/xlink" x="0px" y="0px" viewBox="0 0 250 250"
	 style="enable-background:new 0 0 250 250;" xml:space="preserve">
<g>
	<path d="M150,251c-0.544-1.7-0.926-3.473-1.657-5.089c-17.462-38.602-34.927-77.202-52.522-115.743
		c-1.366-2.992-1.363-5.345,0.002-8.335c17.594-38.541,35.06-77.142,52.522-115.743C149.076,4.474,149.456,2.7,150,1
		c2.333,0,4.667,0,7,0c-18.276,40.268-36.524,80.549-54.884,120.78c-1.365,2.991-1.365,5.451-0.001,8.441
		C120.475,170.451,138.724,210.732,157,251C154.667,251,152.333,251,150,251z"/>
</g>
</svg>
