<?xml version="1.0" encoding="iso-8859-1"?>
<!-- Generator: Adobe Illustrator 22.0.1, SVG Export Plug-In . SVG Version: 6.00 Build 0)  -->
<svg version="1.1" id="&#x421;&#x43B;&#x43E;&#x439;_1"
	 xmlns="http://www.w3.org/2000/svg" xmlns:xlink="http://www.w3.org/1999/xlink" x="0px" y="0px" viewBox="0 0 250 250"
	 style="enable-background:new 0 0 250 250;" xml:space="preserve">
<g>
	<path d="M94,251c18.276-40.268,36.524-80.548,54.883-120.778c1.365-2.991,1.364-5.451-0.001-8.443
		C130.522,81.549,112.275,41.268,94,1c2.333,0,4.667,0,7,0c0.543,1.7,0.922,3.474,1.653,5.089
		c17.463,38.601,34.93,77.201,52.526,115.742c1.365,2.99,1.368,5.344,0.002,8.336c-17.596,38.541-35.062,77.141-52.526,115.743
		c-0.731,1.615-1.111,3.389-1.655,5.089C98.667,251,96.333,251,94,251z"/>
</g>
</svg>
