<?xml version="1.0" encoding="iso-8859-1"?>
<!-- Generator: Adobe Illustrator 22.0.1, SVG Export Plug-In . SVG Version: 6.00 Build 0)  -->
<svg version="1.1" id="&#x421;&#x43B;&#x43E;&#x439;_1"
	 xmlns="http://www.w3.org/2000/svg" xmlns:xlink="http://www.w3.org/1999/xlink" x="0px" y="0px" viewBox="0 0 250 250"
	 style="enable-background:new 0 0 250 250;" xml:space="preserve">
<g>
	<path d="M1,9c21.946,0,43.893,0,66.418,0c0,11.266,0,22.009,0,33.143c61.006,0,121.431,0,182.218,0c0,5.634,0,10.867,0,16.647
		c-5.143,0-10.385,0-16.143,0c0,33.454,0,66.375,0,99.962c-55.539,0-110.558,0-165.858,0c0,5.752,0,10.834,0,16.489
		c55.154,0,110.044,0,165.323,0c0,5.778,0,10.99,0,16.502c-60.489,0-120.897,0-181.978,0c0-55.156,0-110.336,0-165.744
		C33.873,26,17.437,26,1,26C1,20.333,1,14.667,1,9z M67.634,59.152c0,27.866,0,55.131,0,82.629c5.509,0,10.732,0,16.046,0
		c0-27.69,0-55.084,0-82.629C78.244,59.152,73.128,59.152,67.634,59.152z M167.343,59.193c0,27.797,0,55.193,0,82.66
		c5.459,0,10.572,0,15.995,0c0-27.626,0-55.028,0-82.66C177.935,59.193,172.822,59.193,167.343,59.193z M200.454,59.137
		c0,27.863,0,55.224,0,82.594c5.584,0,10.814,0,16.092,0c0-27.705,0-55.065,0-82.594C211.08,59.137,205.96,59.137,200.454,59.137z
		 M116.75,141.822c0-27.846,0-55.196,0-82.575c-5.443,0-10.525,0-15.806,0c0,27.629,0,54.975,0,82.575
		C106.314,141.822,111.392,141.822,116.75,141.822z M149.983,141.884c0-27.853,0-55.197,0-82.66c-5.445,0-10.521,0-15.665,0
		c0,27.731,0,55.199,0,82.66C139.7,141.884,144.655,141.884,149.983,141.884z"/>
	<path d="M100.348,209.116c0,11.012,0,21.725,0,32.62c-11.019,0-21.735,0-32.693,0c0-10.979,0-21.693,0-32.62
		C78.672,209.116,89.382,209.116,100.348,209.116z"/>
	<path d="M184.051,209.039c10.9,0,21.494,0,32.466,0c0,10.799,0,21.511,0,32.594c-10.649,0-21.355,0-32.466,0
		C184.051,230.992,184.051,220.293,184.051,209.039z"/>
</g>
</svg>
