<?xml version="1.0" encoding="iso-8859-1"?>
<!-- Generator: Adobe Illustrator 22.0.1, SVG Export Plug-In . SVG Version: 6.00 Build 0)  -->
<svg version="1.1" id="&#x421;&#x43B;&#x43E;&#x439;_1"
	 xmlns="http://www.w3.org/2000/svg" xmlns:xlink="http://www.w3.org/1999/xlink" x="0px" y="0px" viewBox="0 0 250 250"
	 style="enable-background:new 0 0 250 250;" xml:space="preserve">
<g>
	<path d="M22,1c6.899,3.12,13.778,6.288,20.705,9.345c4.87,2.149,9.744,4.316,14.732,6.164c4.409,1.634,6.14,4.588,6.042,9.168
		c-0.155,7.304-0.041,14.614-0.041,22.191c17.422,2.414,34.393,4.78,51.369,7.114c39.751,5.466,79.509,10.888,119.254,16.4
		c7.634,1.059,8.933,2.739,8.937,10.402c0.008,17.499,0.046,34.997-0.01,52.496c-0.059,18.247-11.768,29.88-30.104,29.892
		c-44.496,0.03-88.993,0.078-133.489-0.085c-5.051-0.019-10.097-1.343-15.976-2.18c0.396,7.249-1.562,15.315,1.452,23.103
		c1.871,4.836,5.852,7.593,11.088,8.178c2.145,0.24,4.324,0.238,6.487,0.239c41.163,0.013,82.327-0.024,123.49,0.028
		c15.35,0.02,26.284,8.339,29.296,22.025c2.498,11.351-2.505,23.134-12.448,29.317c-9.954,6.189-22.499,5.51-31.837-1.725
		c-9.209-7.134-12.941-19.401-9.254-30.468c0.52-1.561,1.119-3.096,1.844-5.09c-20.335,0-40.349,0-60.767,0
		c6.349,15.81,3.406,29.143-11.716,38.166c-9.95,5.937-22.902,3.979-31.603-3.835c-9.544-8.571-11.567-20.542-5.692-34.488
		c-0.89-0.352-1.756-0.772-2.665-1.043c-13.787-4.109-21.31-13.927-21.34-28.342c-0.071-34.33-0.024-68.661-0.024-102.991
		c0-14.165-0.09-28.332,0.068-42.496c0.035-3.147-0.946-4.681-3.932-5.855c-8.977-3.529-17.808-7.431-26.688-11.205
		C10.649,11.799,9.725,7.574,16,1C18,1,20,1,22,1z M63.349,61.765c0,2.511,0,4.158,0,5.805c0,21.496-0.008,42.993,0.003,64.489
		c0.007,13.473,4.972,18.497,18.323,18.5c43.159,0.011,86.318,0.005,129.478,0.003c1.166,0,2.336,0.026,3.498-0.048
		c8.955-0.573,14.387-6.189,14.431-15.179c0.077-15.664,0.029-31.328,0.011-46.992c-0.001-1.135-0.176-2.27-0.305-3.835
		C173.832,76.953,118.979,69.412,63.349,61.765z M97.928,235.099c7.792,0.079,14.003-5.903,14.138-13.615
		c0.137-7.863-6.246-14.395-14.023-14.349c-7.569,0.044-13.954,6.426-13.988,13.982C84.021,228.718,90.275,235.021,97.928,235.099z
		 M222.088,221.507c0.141-7.684-5.869-14.08-13.498-14.366c-7.696-0.289-14.46,6.215-14.511,13.953
		c-0.05,7.59,6.213,13.922,13.852,14.006C215.732,235.184,221.947,229.217,222.088,221.507z"/>
</g>
</svg>
