<?xml version="1.0" encoding="iso-8859-1"?>
<!-- Generator: Adobe Illustrator 22.0.1, SVG Export Plug-In . SVG Version: 6.00 Build 0)  -->
<svg version="1.1" id="&#x421;&#x43B;&#x43E;&#x439;_1"
	 xmlns="http://www.w3.org/2000/svg" xmlns:xlink="http://www.w3.org/1999/xlink" x="0px" y="0px" viewBox="0 0 250 250"
	 style="enable-background:new 0 0 250 250;" xml:space="preserve">
<g>
	<path d="M213.074,248.122c-28.541-28.554-57.739-57.765-86.737-86.776c-29.573,29.584-58.835,58.858-87.603,87.636
		c-12.368-12.383-23.96-23.988-35.323-35.364c28.396-28.393,57.68-57.674,86.751-86.742C60.059,96.772,30.792,67.505,2.022,38.735
		C14.398,26.37,26.002,14.777,37.375,3.414c28.395,28.398,57.676,57.682,86.75,86.759c30.104-30.109,59.368-59.379,88.133-88.148
		c12.37,12.379,23.964,23.982,35.325,35.352c-28.397,28.393-57.681,57.673-86.756,86.744c30.112,30.107,59.382,59.371,88.167,88.152
		C236.604,224.637,224.995,236.225,213.074,248.122z"/>
</g>
</svg>
