<?xml version="1.0" encoding="iso-8859-1"?>
<!-- Generator: Adobe Illustrator 22.0.1, SVG Export Plug-In . SVG Version: 6.00 Build 0)  -->
<svg version="1.1" id="&#x421;&#x43B;&#x43E;&#x439;_1"
	 xmlns="http://www.w3.org/2000/svg" xmlns:xlink="http://www.w3.org/1999/xlink" x="0px" y="0px" viewBox="0 0 250 250"
	 style="enable-background:new 0 0 250 250;" xml:space="preserve">
<g>
	<path d="M1,226C1,159.667,1,93.333,1,27c82.888,0,165.775,0,248.654,0c0,66.664,0,132.691,0,199C166.539,226,83.769,226,1,226z
		 M51.115,102.134c-8.244,0-16.488,0-24.76,0c0,33.045,0,65.906,0,98.677c66.356,0,132.29,0,198.325,0c0-33.137,0-66.006,0-98.677
		c-8.524,0-16.659,0-24.795,0c0-8.273,0-16.547,0-25.476c8.848,0,16.891,0,24.838,0c0-8.586,0-16.501,0-24.392
		c-66.382,0-132.419,0-198.477,0c0,8.256,0,16.164,0,24.755c8.332,0,16.371,0,24.869,0C51.115,85.849,51.115,93.992,51.115,102.134z
		"/>
	<path d="M100.964,150.937c16.357,0,32.714,0,49.071,0c0,8.236,0,16.472,0,24.973c-16.451,0-32.621,0-49.071,0
		C100.964,167.409,100.964,159.173,100.964,150.937z"/>
	<path d="M50.931,101.943c8.099,0,16.198,0,25.161,0c0,8.621,0,16.894,0,25.168c-8.203,0-16.407,0-25.161,0
		C50.931,118.023,50.931,109.983,50.931,101.943z"/>
	<path d="M174.908,127.111c0-8.274,0-16.547,0-25.168c8.964,0,17.062,0,25.161,0c0,7.917,0,15.835,0,25.168
		C191.521,127.111,183.215,127.111,174.908,127.111z"/>
	<path d="M75.932,126.944c7.933,0,15.867,0,25.131,0c0,8.044,0,16.068,0,24.092c-8.129,0-16.258,0-25.131,0
		C75.932,143.051,75.932,134.997,75.932,126.944z"/>
	<path d="M149.937,151.036c0-7.919,0-15.838,0-24.092c9.009,0,17.07,0,25.131,0c0,7.93,0,15.861,0,24.092
		C166.43,151.036,158.183,151.036,149.937,151.036z"/>
</g>
</svg>
