<?xml version="1.0" encoding="iso-8859-1"?>
<!-- Generator: Adobe Illustrator 22.0.1, SVG Export Plug-In . SVG Version: 6.00 Build 0)  -->
<svg version="1.1" id="&#x421;&#x43B;&#x43E;&#x439;_1"
	 xmlns="http://www.w3.org/2000/svg" xmlns:xlink="http://www.w3.org/1999/xlink" x="0px" y="0px" viewBox="0 0 250 250"
	 style="enable-background:new 0 0 250 250;" xml:space="preserve">
<g>
	<path d="M35.001,126.132C35,92.807,34.991,59.481,35.004,26.155c0.006-15.248,7.869-23.15,23-23.154
		c28.493-0.006,56.987-0.096,85.479,0.147c2.785,0.024,6.246,1.424,8.222,3.372c20.403,20.126,40.632,40.43,60.687,60.902
		c1.953,1.993,3.418,5.437,3.429,8.214c0.202,50.987,0.167,101.975,0.134,152.963c-0.008,12.888-8.42,21.372-21.22,21.383
		c-46.156,0.038-92.312,0.038-138.467,0c-12.796-0.01-21.219-8.45-21.243-21.377C34.959,194.449,35.002,160.291,35.001,126.132z
		 M141.443,13.077c-2.208-0.105-3.837-0.248-5.466-0.249c-25.993-0.014-51.987-0.022-77.98-0.004
		c-9.825,0.007-13.146,3.354-13.147,13.214c-0.007,66.983-0.007,133.966,0,200.948c0.001,9.837,3.335,13.187,13.171,13.189
		c44.988,0.013,89.977,0.013,134.965,0c9.861-0.003,13.161-3.323,13.163-13.196c0.009-47.821,0.004-95.642,0.004-143.463
		c0-1.767,0-3.534,0-5.698c-14.465,0-28.264,0.026-42.062-0.007c-14.451-0.035-22.521-8.082-22.631-22.625
		c-0.078-10.33-0.017-20.661-0.018-30.992C141.443,20.579,141.443,16.964,141.443,13.077z M151.155,20.605
		c0,12.159-0.055,23.771,0.019,35.382c0.051,7.961,4.075,11.949,12.048,11.996c10.658,0.063,21.317,0.028,31.975-0.003
		c1.032-0.003,2.063-0.276,3.309-0.455C182.695,51.858,167.223,36.527,151.155,20.605z"/>
	<path d="M124.974,136.817c-11.983,0-23.966-0.012-35.949,0.007c-3.573,0.006-7.077-0.398-7.066-4.982
		c0.012-4.638,3.558-4.86,7.116-4.856c24.299,0.028,48.598,0.028,72.897,0c3.573-0.004,7.094,0.265,7.063,4.905
		c-0.03,4.588-3.556,4.939-7.114,4.934C149.606,136.806,137.29,136.817,124.974,136.817z"/>
	<path d="M125.458,158.564c-11.644,0-23.289,0.001-34.933-0.002c-1.164,0-2.333,0.036-3.492-0.048
		c-3.031-0.22-5.172-1.572-5.122-4.886c0.049-3.266,2.065-4.733,5.2-4.734c25.617-0.01,51.235-0.013,76.852,0.005
		c3.147,0.002,5.137,1.547,5.113,4.807c-0.027,3.633-2.512,4.817-5.691,4.826c-12.642,0.038-25.285,0.015-37.927,0.015
		C125.458,158.554,125.458,158.559,125.458,158.564z"/>
	<path d="M124.995,180.248c-12.139,0-24.278-0.024-36.417,0.015c-3.444,0.011-6.648-0.453-6.644-4.786
		c0.004-4.32,3.223-4.817,6.654-4.814c24.61,0.016,49.221,0.016,73.831,0c3.436-0.002,6.646,0.509,6.644,4.825
		c-0.003,4.332-3.212,4.786-6.654,4.776C149.938,180.225,137.466,180.248,124.995,180.248z"/>
	<path d="M112.693,202.122c-8.146-0.001-16.293-0.031-24.439,0.014c-3.325,0.018-6.218-0.704-6.323-4.644
		c-0.113-4.224,2.921-5.145,6.421-5.148c16.293-0.011,32.585-0.004,48.878-0.008c3.486-0.001,6.649,0.875,6.614,5.001
		c-0.036,4.158-3.215,4.834-6.712,4.806C128.986,202.08,120.84,202.123,112.693,202.122z"/>
</g>
</svg>
