<?xml version="1.0" encoding="iso-8859-1"?>
<!-- Generator: Adobe Illustrator 22.0.1, SVG Export Plug-In . SVG Version: 6.00 Build 0)  -->
<svg version="1.1" id="&#x421;&#x43B;&#x43E;&#x439;_1"
	 xmlns="http://www.w3.org/2000/svg" xmlns:xlink="http://www.w3.org/1999/xlink" x="0px" y="0px" viewBox="0 0 250 250"
	 style="enable-background:new 0 0 250 250;" xml:space="preserve">
<g>
	<path d="M176.696,207.31c-9.446,3.718-17.063,6.572-24.524,9.786c-1.359,0.586-2.593,2.515-2.978,4.051
		c-0.512,2.039-0.095,4.303-0.144,6.468c-0.29,12.749-10.126,22.437-22.693,22.376c-12.331-0.06-22.069-9.692-22.407-22.163
		c-0.26-9.578-0.316-9.433-9.501-12.97c-5.56-2.141-10.915-4.816-17.772-7.882c-1.432,1.801-3.066,4.373-5.191,6.439
		c-9.569,9.3-23.164,9.426-32.21,0.464c-9.055-8.971-9.047-22.645,0.15-32.214c2.063-2.146,4.532-3.903,6.099-5.232
		c-3.552-9.223-6.565-17.281-9.834-25.235c-0.408-0.992-2.115-1.868-3.321-2.026c-2.459-0.321-4.99-0.054-7.487-0.137
		c-12.409-0.411-21.935-10.309-21.872-22.688c0.062-12.133,9.526-21.91,21.676-22.39c10.044-0.397,9.922-0.445,13.66-9.996
		c2.111-5.394,4.702-10.6,7.745-17.379c-2.176-1.771-5.192-3.687-7.532-6.226c-8.365-9.076-8.008-22.49,0.577-31.1
		c8.641-8.667,21.955-9.094,31.125-0.847c3.465,3.116,6.675,6.521,9.95,9.844c2.286,2.32,2.954,5.011,0.512,7.496
		c-2.427,2.469-5.168,1.921-7.521-0.324c-3.013-2.876-5.851-5.935-8.871-8.803c-5.634-5.349-13.242-5.355-18.258-0.111
		c-4.842,5.063-4.611,12.414,0.638,17.911c2.646,2.772,5.35,5.494,8.131,8.129c2.713,2.572,2.721,5.106,1.189,8.497
		c-4.087,9.046-7.966,18.204-11.435,27.501c-1.376,3.688-3.12,5.6-7.113,5.443c-3.827-0.151-7.667-0.097-11.498-0.013
		c-7.491,0.164-12.868,5.349-12.941,12.381c-0.075,7.218,5.407,12.521,13.17,12.657c3.999,0.07,8,0.041,11.999,0.014
		c3.285-0.022,4.933,1.582,6.133,4.687c3.696,9.57,7.634,19.054,11.781,28.438c1.41,3.191,1.423,5.642-1.114,8.092
		c-2.877,2.777-5.722,5.593-8.469,8.498c-5.163,5.46-5.251,12.909-0.307,17.9c4.962,5.009,12.461,5.022,17.902-0.086
		c3.036-2.85,5.92-5.863,8.859-8.815c2.332-2.343,4.715-2.252,7.699-0.941c9.393,4.127,18.855,8.121,28.434,11.789
		c3.333,1.276,4.91,3.049,4.854,6.531c-0.067,4.165-0.116,8.336,0.025,12.498c0.24,7.112,5.562,12.304,12.452,12.326
		c6.897,0.022,12.273-5.152,12.53-12.245c0.15-4.161,0.1-8.333,0.026-12.498c-0.062-3.459,1.413-5.302,4.774-6.588
		c9.581-3.665,19.055-7.632,28.437-11.782c3.214-1.422,5.645-1.322,8.079,1.198c2.893,2.996,5.799,5.993,8.867,8.806
		c5.272,4.834,12.673,4.707,17.533-0.137c4.84-4.825,4.966-12.294,0.142-17.529c-2.821-3.062-5.839-5.943-8.799-8.875
		c-2.428-2.404-3.496-5.152-0.926-7.882c2.598-2.76,5.406-1.852,7.843,0.584c3.3,3.299,6.725,6.489,9.822,9.971
		c8,8.997,7.535,22.249-0.913,30.75c-8.479,8.532-21.732,9.159-30.715,1.166C180.451,212.485,178.398,209.341,176.696,207.31z"/>
	<path d="M207.483,76.677c3.533,9.052,6.437,16.811,9.662,24.434c0.527,1.245,2.376,2.448,3.783,2.689
		c2.592,0.445,5.314,0.062,7.973,0.199c11.789,0.606,21.057,10.492,21.09,22.422c0.032,11.946-9.182,21.972-20.931,22.555
		c-4.82,0.239-9.659,0.079-14.49,0.086c-3.286,0.005-5.597-1.331-5.647-4.88c-0.049-3.514,2.189-5.045,5.464-5.113
		c4.329-0.09,8.665,0.058,12.992-0.065c7.342-0.208,12.695-5.693,12.574-12.728c-0.118-6.847-5.37-12.063-12.519-12.279
		c-3.994-0.121-8-0.15-11.992-0.001c-4.021,0.15-5.704-1.848-7.061-5.508c-3.39-9.146-7.097-18.2-11.21-27.042
		c-1.77-3.805-1.683-6.493,1.355-9.299c2.813-2.597,5.525-5.315,8.14-8.112c4.905-5.248,4.953-12.637,0.233-17.548
		c-4.88-5.078-12.479-5.217-17.893-0.19c-3.05,2.832-5.947,5.831-8.854,8.812c-2.482,2.545-4.959,2.361-8.111,0.96
		c-9.22-4.096-18.523-8.038-27.962-11.593c-3.552-1.338-5.168-3.174-5.073-6.872c0.106-4.162,0.147-8.334-0.026-12.492
		c-0.293-7.033-5.802-12.176-12.697-12.064c-6.687,0.109-11.973,5.174-12.261,11.995c-0.183,4.324-0.043,8.661-0.059,12.992
		c-0.013,3.42-1.237,6.028-5.074,6.023c-3.875-0.004-4.996-2.627-4.961-6.066c0.045-4.497-0.096-9,0.062-13.492
		c0.423-12.065,10.369-21.499,22.524-21.494c12.149,0.006,22.025,9.445,22.519,21.521c0.417,10.196,0.429,10.162,9.862,13.689
		c2.799,1.047,5.537,2.275,8.247,3.541c2.551,1.193,5.028,2.545,8.845,4.495c1.851-2.211,3.749-4.985,6.137-7.239
		c9.395-8.867,22.954-8.646,31.823,0.337c8.64,8.751,8.736,22.267,0.087,31.483C211.876,73.13,209.321,75.053,207.483,76.677z"/>
	<path d="M125.811,156.676c-5.428-2.237-10.971-4.236-16.238-6.802c-3.03-1.476-4.285-4.466-2.14-7.548
		c2.143-3.08,4.945-2.629,7.834-0.634c6.825,4.715,14.045,5.11,21.11,0.837c6.538-3.954,9.441-10.08,8.86-17.758
		c-0.705-9.327-8.331-16.648-17.759-17.067c-9.744-0.433-18.112,6.241-19.573,15.612c-1.069,6.856-2.65,8.967-6.375,7.897
		c-5.631-1.617-4.029-6.262-3.447-9.991c2.332-14.925,16.431-25.054,32.162-23.363c14.782,1.589,26.08,15.24,25.116,30.347
		c-0.991,15.516-13.509,27.247-29.025,27.198C126.162,155.829,125.986,156.252,125.811,156.676z"/>
</g>
</svg>
