<?xml version="1.0" encoding="iso-8859-1"?>
<!-- Generator: Adobe Illustrator 22.0.1, SVG Export Plug-In . SVG Version: 6.00 Build 0)  -->
<svg version="1.1" id="&#x421;&#x43B;&#x43E;&#x439;_1"
	 xmlns="http://www.w3.org/2000/svg" xmlns:xlink="http://www.w3.org/1999/xlink" x="0px" y="0px" viewBox="0 0 250 250"
	 style="enable-background:new 0 0 250 250;" xml:space="preserve">
<g>
	<path d="M162,84.82c18.19,0,35.66,0.024,53.131-0.009c11.041-0.02,20.135,4.208,27.032,12.742
		c6.752,8.355,8.846,17.817,7.024,28.572c-4.837,28.555-9.022,57.221-13.862,85.776c-3.391,20.005-16.412,31.638-36.822,31.903
		c-37.323,0.485-74.659,0.455-111.983,0.032c-18.214-0.206-32.288-16.125-32.341-35.291c-0.086-31.33-0.021-62.66-0.027-93.99
		c-0.002-8.401-1.044-9.424-9.531-9.43c-7.666-0.005-15.332-0.061-22.997,0.022c-5.372,0.059-7.237,1.863-7.245,7.252
		c-0.049,33.83-0.053,67.659,0.004,101.489c0.009,5.323,1.9,6.994,7.401,7.062c4.665,0.058,9.332,0.013,13.998,0.018
		c4.158,0.004,6.931,2.036,6.881,6.199c-0.051,4.169-2.861,6.075-7.037,6.022c-5.498-0.07-11.003,0.108-16.497-0.068
		c-9.394-0.3-16.992-7.505-17.037-16.872C1.921,180.756,1.914,145.259,2.1,109.763c0.049-9.326,7.78-16.618,17.135-16.784
		c9.996-0.177,19.997-0.087,29.996-0.031c5.51,0.031,10.175,2.278,13.329,6.697c1.908,2.673,3.71,2.984,6.246,1.569
		c7.519-4.196,15.583-7.677,22.395-12.816c10.805-8.152,16.223-19.511,16.043-33.359c-0.171-13.163-0.059-26.33-0.025-39.495
		c0.016-6.155,1.416-8.546,7.501-9.094c7.364-0.663,15.105-1.312,22.214,0.214c15.494,3.326,24.438,16.851,24.945,36.023
		c0.317,11.991,0.099,23.996,0.119,35.994C162.003,80.494,162,82.308,162,84.82z M66.651,114.86c0,1.796,0,3.603,0,5.41
		c0,28.66-0.013,57.32,0.005,85.98c0.01,16.903,8.621,25.491,25.546,25.497c33.159,0.011,66.318,0.024,99.476-0.027
		c3.487-0.005,6.998-0.248,10.454-0.707c11.556-1.535,18.999-8.746,20.875-20.297c4.67-28.75,8.927-57.572,13.996-86.251
		c3.013-17.046-10.19-27.858-23.514-27.505c-17.983,0.476-35.988,0.122-53.984,0.116c-8.629-0.003-9.784-1.209-9.865-9.812
		c-0.15-15.988,0.226-32.01-0.71-47.954c-0.977-16.634-12.246-24.428-29.139-20.927c0,1.679,0,3.473,0,5.268
		c-0.002,10.498,0.037,20.995-0.017,31.492c-0.07,13.493-4.157,25.56-13.186,35.729C95.994,102.803,82.59,110.144,66.651,114.86z"/>
</g>
</svg>
