<?xml version="1.0" encoding="iso-8859-1"?>
<!-- Generator: Adobe Illustrator 22.0.1, SVG Export Plug-In . SVG Version: 6.00 Build 0)  -->
<svg version="1.1" id="&#x421;&#x43B;&#x43E;&#x439;_1"
	 xmlns="http://www.w3.org/2000/svg" xmlns:xlink="http://www.w3.org/1999/xlink" x="0px" y="0px" viewBox="0 0 250 250"
	 style="enable-background:new 0 0 250 250;" xml:space="preserve">
<g>
	<path d="M163,251c-1.433-2.015-3.035-3.932-4.272-6.061c-9.951-17.125-19.829-34.293-29.743-51.44
		c-0.891-1.542-1.879-3.027-3.116-5.009c-1.163,1.812-2.072,3.124-2.876,4.497c-10.259,17.524-20.487,35.066-30.758,52.584
		c-3.708,6.324-7.176,6.343-10.818,0.061c-4.675-8.063-9.442-16.08-13.825-24.301c-1.789-3.355-3.784-4.74-7.726-4.62
		c-10.487,0.318-20.99,0.158-31.487,0.09c-7.133-0.047-9.013-3.295-5.53-9.514c11.546-20.615,23.135-41.207,35.023-62.368
		c-7.551-3.979-6.927-10.704-5.132-17.33c2.936-10.835,0.841-19.197-7.908-27.243c-11.278-10.373-11.173-13.61,0.008-23.817
		c8.44-7.704,11.826-15.678,8.389-26.568c-0.639-2.024-0.544-4.284-0.759-6.437c-0.606-6.071,2.36-10.404,8.342-11.661
		c6.186-1.3,12.479-2.108,18.629-3.544c1.787-0.417,3.772-1.92,4.756-3.494c3.172-5.073,5.86-10.446,8.846-15.64
		c3.657-6.361,7.938-7.654,14.623-4.466c5.406,2.578,10.698,5.408,16.19,7.78c1.57,0.678,3.894,0.716,5.471,0.069
		c5.533-2.272,10.848-5.068,16.326-7.482c6.628-2.921,11.129-1.36,14.612,4.917c2.826,5.093,5.324,10.39,8.471,15.271
		c1.251,1.94,3.666,3.716,5.891,4.325c5.601,1.532,11.41,2.289,17.108,3.485c6.245,1.31,9.342,5.624,8.589,11.964
		c-0.747,6.281-1.807,12.53-2.363,18.825c-0.151,1.708,0.565,3.917,1.671,5.233c3.854,4.587,8.112,8.831,12.108,13.303
		c4.745,5.311,4.674,10.331-0.156,15.511c-4.09,4.387-8.363,8.608-12.324,13.106c-1.055,1.198-1.85,3.182-1.75,4.74
		c0.34,5.309,0.82,10.65,1.838,15.864c1.123,5.758,0.136,10.541-4.932,14.359c1.801,3.204,3.491,6.231,5.201,9.247
		c9.77,17.228,19.554,34.448,29.312,51.683c3.767,6.653,1.84,9.856-5.988,9.889c-10.663,0.045-21.328,0.121-31.989-0.057
		c-3.066-0.051-4.772,0.918-6.224,3.659c-4.439,8.38-9.157,16.615-13.846,24.861c-1.137,2-2.58,3.825-3.882,5.731
		C165.667,251,164.333,251,163,251z M60.929,136.091c7.126,1.352,13.619,2.85,20.194,3.745c4.963,0.676,8.183,2.993,10.367,7.436
		c2.981,6.064,6.294,11.963,9.534,18.064c6.578-3.082,12.673-5.734,18.571-8.769c4.417-2.273,8.424-2.157,12.784,0.168
		c5.799,3.092,11.812,5.784,17.896,8.727c3.21-5.789,6.434-10.866,8.918-16.282c2.759-6.016,7.246-8.591,13.593-9.257
		c5.712-0.599,11.353-1.877,17.197-2.885c-0.816-7.163-1.295-13.802-2.41-20.332c-0.819-4.793,0.395-8.538,3.895-11.661
		c4.97-4.434,9.997-8.805,15.282-13.452c-5.436-5.924-9.312-10.723-13.792-14.872c-4.721-4.374-5.757-9.302-4.607-15.345
		c1.137-5.975,1.747-12.05,2.613-18.255c-7.034-1.423-13.506-2.986-20.065-3.975c-4.792-0.722-7.79-3.141-9.895-7.342
		c-3.03-6.046-6.319-11.962-9.608-18.141c-6.633,3.025-12.892,5.694-18.975,8.72c-4.1,2.039-7.804,1.989-11.854-0.142
		c-5.964-3.139-12.115-5.922-18.388-8.955c-3.425,6.151-6.72,11.73-9.673,17.485c-2.233,4.351-5.361,6.869-10.325,7.566
		c-6.694,0.94-13.318,2.38-20.257,3.658c0.829,7.215,1.368,14.005,2.462,20.703c0.748,4.576-0.455,8.07-3.646,11.284
		c-4.77,4.804-9.343,9.804-14.176,14.907c4.582,5.041,8.625,9.912,13.125,14.314c4.013,3.925,4.997,8.319,4.069,13.627
		C62.675,123.031,61.913,129.288,60.929,136.091z M216.895,206.965c0.048-0.756,0.202-1.151,0.07-1.385
		c-10.436-18.541-20.857-37.09-31.452-55.54c-0.565-0.983-2.613-1.576-3.967-1.569c-8.372,0.042-14.415,3.462-17.266,11.862
		c-1.052,3.099-3.081,5.877-4.734,8.76c-3.502,6.107-8.382,7.716-14.712,4.743c-5.415-2.544-10.739-5.281-16.141-7.852
		c-1.163-0.553-2.491-0.761-5.124-1.532c14.153,24.601,27.52,47.836,41.314,71.812c4.957-8.787,9.552-16.648,13.843-24.672
		c1.786-3.339,4.019-4.787,7.886-4.702C196.708,207.112,206.813,206.965,216.895,206.965z M34.457,206.964
		c10.499,0,20.432,0.186,30.353-0.087c4.262-0.117,6.72,1.479,8.705,5.127c4.181,7.684,8.72,15.173,13.43,23.289
		c1.25-1.982,2.153-3.306,2.948-4.691c8.936-15.579,17.854-31.168,26.779-46.754c3.843-6.711,3.631-8.076-2.283-13.996
		c-2.961,1.34-5.918,2.866-9.009,4.039c-5.783,2.196-10.036,0.638-13.1-4.699c-2.069-3.604-4.508-7.118-5.839-10.996
		c-2.528-7.366-7.686-9.996-14.969-10.46c-2.667-0.17-4.118-0.018-5.527,2.522c-9.917,17.888-20.022,35.672-30.051,53.498
		C35.43,204.58,35.113,205.486,34.457,206.964z"/>
	<path d="M125.814,138.242c-26.948-0.014-48.851-22.037-48.781-49.047c0.07-26.857,22.417-49.083,49.12-48.853
		c26.636,0.229,48.51,22.271,48.569,48.939C174.781,116.215,152.764,138.256,125.814,138.242z M86.895,89.537
		c0.059,21.573,17.683,39.129,39.14,38.991c21.478-0.139,38.97-17.83,38.895-39.338c-0.074-21.389-17.939-39.165-39.247-39.051
		C104.242,50.253,86.837,67.932,86.895,89.537z"/>
</g>
</svg>
