<?xml version="1.0" encoding="iso-8859-1"?>
<!-- Generator: Adobe Illustrator 22.0.1, SVG Export Plug-In . SVG Version: 6.00 Build 0)  -->
<svg version="1.1" id="&#x421;&#x43B;&#x43E;&#x439;_1"
	 xmlns="http://www.w3.org/2000/svg" xmlns:xlink="http://www.w3.org/1999/xlink" x="0px" y="0px" viewBox="0 0 250 250"
	 style="enable-background:new 0 0 250 250;" xml:space="preserve">
<g>
	<path d="M155.676,169.161c5.945-6.04,11.585-11.94,17.409-17.651c11.868-11.639,25.136-11.578,36.931,0.113
		c9.704,9.618,19.378,19.268,28.999,28.97c12.222,12.324,12.358,25.754,0.375,38.265c-5.645,5.894-11.507,11.58-17.152,17.474
		c-10.319,10.772-23.113,13.922-37.435,12.231c-24.731-2.919-46.598-13.465-67.283-26.46
		C68.099,191.054,31.447,149.091,10.546,94.16c-5.13-13.482-8.145-27.456-5.791-42.071c1.316-8.17,5.061-15.103,10.799-20.96
		c6.18-6.308,12.403-12.578,18.741-18.726C45.857,1.186,59.437,0.959,71.092,12.143c10.576,10.15,20.935,20.541,31.069,31.134
		c10.469,10.943,10.405,23.663,0.092,34.748c-5.104,5.486-10.372,10.851-15.928,15.871c-2.65,2.395-2.825,4.237-1.23,7.202
		c9.611,17.869,23.008,32.603,37.973,46.012C132.762,155.796,143.121,163.587,155.676,169.161z"/>
</g>
</svg>
