<?xml version="1.0" encoding="iso-8859-1"?>
<!-- Generator: Adobe Illustrator 22.0.1, SVG Export Plug-In . SVG Version: 6.00 Build 0)  -->
<svg version="1.1" id="&#x421;&#x43B;&#x43E;&#x439;_1"
	 xmlns="http://www.w3.org/2000/svg" xmlns:xlink="http://www.w3.org/1999/xlink" x="0px" y="0px" viewBox="0 0 250 250"
	 style="enable-background:new 0 0 250 250;" xml:space="preserve">
<g>
	<path d="M147,251c-14,0-28,0-42,0c0-34.413,0-68.827,0-103.667c-2.604,0-4.575,0-6.547,0c-29.497,0-58.994,0.009-88.491-0.015
		C6.975,147.316,3.987,147.111,1,147c0-13.667,0-27.333,0-41c1.988-0.111,3.975-0.317,5.963-0.318
		c30.663-0.02,61.327-0.014,91.99-0.014c1.937,0,3.873,0,6.047,0c0-35.374,0-70.021,0-104.667c14,0,28,0,42,0
		c0,34.747,0,69.494,0,104.667c2.604,0,4.575,0,6.547,0c29.497,0,58.994-0.01,88.491,0.015c2.988,0.002,5.975,0.207,8.962,0.318
		c0,13.667,0,27.333,0,41c-1.988,0.111-3.975,0.317-5.963,0.319c-30.663,0.02-61.327,0.014-91.99,0.014c-1.937,0-3.873,0-6.047,0
		C147,182.374,147,216.687,147,251z"/>
</g>
</svg>
