<?xml version="1.0" encoding="iso-8859-1"?>
<!-- Generator: Adobe Illustrator 22.0.1, SVG Export Plug-In . SVG Version: 6.00 Build 0)  -->
<svg version="1.1" id="&#x421;&#x43B;&#x43E;&#x439;_1"
	 xmlns="http://www.w3.org/2000/svg" xmlns:xlink="http://www.w3.org/1999/xlink" x="0px" y="0px" viewBox="0 0 250 250"
	 style="enable-background:new 0 0 250 250;" xml:space="preserve">
<g>
	<path d="M234,251c-1.06-1.245-2.041-2.57-3.193-3.724c-20.946-20.998-41.911-41.977-62.88-62.953
		c-1.155-1.155-2.374-2.246-3.539-3.344c-45.219,37.647-106.928,27.42-139.493-11.558c-31.489-37.69-30.293-93.799,3.158-129.833
		C61.968,3.055,117.185-2.45,157.555,26.554c40.567,29.146,55.316,87.874,23.511,135.794c0.361,0.465,0.705,1.023,1.156,1.475
		c22.25,22.287,44.506,44.566,66.78,66.828c0.558,0.558,1.327,0.904,1.998,1.349c0,1,0,2,0,3c-5.333,5.333-10.667,10.667-16,16
		C234.667,251,234.333,251,234,251z M26.592,106.472c0.185,40.865,33.106,73.615,73.891,73.508
		c40.543-0.106,73.608-33.525,73.359-74.143c-0.25-40.7-33.505-73.473-74.242-73.166C58.996,32.977,26.408,65.919,26.592,106.472z"
		/>
	<path style="fill:#FFFFFF;" d="M235,251c5.333-5.333,10.667-10.667,16-16c0,5.333,0,10.667,0,16C245.667,251,240.333,251,235,251z"
		/>
</g>
</svg>
