<svg class="fb" xmlns="http://www.w3.org/2000/svg" width="15.503" height="27.313" viewBox="0 0 15.503 27.313">
    <defs>
        <style>.fb:hover{fill:#365391;}</style>
    </defs>
    <path class="fb" d="M10.076,27.313H5.7a1.326,1.326,0,0,1-1.325-1.325V16.123H1.825A1.326,1.326,0,0,1,.5,14.8V10.57A1.326,1.326,0,0,1,1.825,9.245H4.377V7.128A7.208,7.208,0,0,1,6.283,1.964,6.865,6.865,0,0,1,11.344,0L14.68.005A1.327,1.327,0,0,1,16,1.33V5.255A1.326,1.326,0,0,1,14.678,6.58H12.432c-.685,0-.859.137-.9.179-.061.07-.135.267-.135.812V9.245h3.108a1.347,1.347,0,0,1,.656.166,1.33,1.33,0,0,1,.682,1.159l0,4.228a1.326,1.326,0,0,1-1.325,1.324H11.4v9.866A1.327,1.327,0,0,1,10.076,27.313Z"
          transform="translate(-0.5)"/>
</svg>