<?xml version="1.0" encoding="utf-8"?>
<svg id="logo" class="logo" image-rendering="auto" baseProfile="basic" version="1.1" x="0px" y="0px" viewBox="0 0 824 212"
     xmlns="http://www.w3.org/2000/svg" xmlns:xlink="http://www.w3.org/1999/xlink">
    <defs>
        <linearGradient id="Gradient_1" gradientUnits="userSpaceOnUse" x1="168.975" y1="57" x2="210.725" y2="57"
                        spreadMethod="pad">
            <stop offset="0%" stop-color="#B1C6D5"/>
            <stop offset="100%" stop-color="#6D7E89"/>
        </linearGradient>
        <linearGradient id="Gradient_2" gradientUnits="userSpaceOnUse" x1="168.925" y1="49.35" x2="226.175" y2="49.35"
                        spreadMethod="pad">
            <stop offset="0%" stop-color="#FF5876"/>
            <stop offset="100%" stop-color="#AEC5D0"/>
        </linearGradient>
        <linearGradient id="Gradient_3" gradientUnits="userSpaceOnUse" x1="168.962" y1="54.3" x2="197.437" y2="54.3"
                        spreadMethod="pad">
            <stop offset="0%" stop-color="#B1C6D5"/>
            <stop offset="100%" stop-color="#6D7E89"/>
        </linearGradient>
        <linearGradient id="Gradient_4" gradientUnits="userSpaceOnUse" x1="169.012" y1="51.6" x2="184.187" y2="51.6"
                        spreadMethod="pad">
            <stop offset="0%" stop-color="#B1C6D5"/>
            <stop offset="100%" stop-color="#6D7E89"/>
        </linearGradient>
        <linearGradient id="Gradient_5" gradientUnits="userSpaceOnUse" x1="169" y1="48.9" x2="170.899" y2="48.9"
                        spreadMethod="pad">
            <stop offset="0%" stop-color="#B1C6D5"/>
            <stop offset="100%" stop-color="#6D7E89"/>
        </linearGradient>
        <linearGradient id="Gradient_6" gradientUnits="userSpaceOnUse" x1="105.749" y1="33.55" x2="158.149" y2="33.55"
                        spreadMethod="pad">
            <stop offset="0%" stop-color="#C4B78D"/>
            <stop offset="100%" stop-color="#B1C6D5"/>
        </linearGradient>
        <linearGradient id="Gradient_7" gradientUnits="userSpaceOnUse" x1="106.449" y1="23.8" x2="166.95" y2="23.8"
                        spreadMethod="pad">
            <stop offset="0%" stop-color="#FF5876"/>
            <stop offset="100%" stop-color="#AEC5D0"/>
        </linearGradient>
        <linearGradient id="Gradient_8" gradientUnits="userSpaceOnUse" x1="105.775" y1="31.1" x2="145.725" y2="31.1"
                        spreadMethod="pad">
            <stop offset="0%" stop-color="#C4B78D"/>
            <stop offset="100%" stop-color="#B1C6D5"/>
        </linearGradient>
        <linearGradient id="Gradient_9" gradientUnits="userSpaceOnUse" x1="105.75" y1="28.65" x2="133.25" y2="28.65"
                        spreadMethod="pad">
            <stop offset="0%" stop-color="#C4B78D"/>
            <stop offset="100%" stop-color="#B1C6D5"/>
        </linearGradient>
        <linearGradient id="Gradient_10" gradientUnits="userSpaceOnUse" x1="105.774" y1="26.2" x2="120.825" y2="26.2"
                        spreadMethod="pad">
            <stop offset="0%" stop-color="#C4B78D"/>
            <stop offset="100%" stop-color="#B1C6D5"/>
        </linearGradient>
        <linearGradient id="Gradient_11" gradientUnits="userSpaceOnUse" x1="105.75" y1="23.75" x2="108.35" y2="23.75"
                        spreadMethod="pad">
            <stop offset="0%" stop-color="#C4B78D"/>
            <stop offset="100%" stop-color="#B1C6D5"/>
        </linearGradient>
        <linearGradient id="Gradient_12" gradientUnits="userSpaceOnUse" x1="3.399" y1="33.95" x2="106.5" y2="33.95"
                        spreadMethod="pad">
            <stop offset="0%" stop-color="#C47979"/>
            <stop offset="100%" stop-color="#C4B78D"/>
        </linearGradient>
        <linearGradient id="Gradient_13" gradientUnits="userSpaceOnUse" x1="4.749" y1="35.95" x2="125.35" y2="35.95"
                        spreadMethod="pad">
            <stop offset="0%" stop-color="#FF5876"/>
            <stop offset="100%" stop-color="#AEC5D0"/>
        </linearGradient>
        <linearGradient id="Gradient_14" gradientUnits="userSpaceOnUse" x1="3.387" y1="38" x2="96.612" y2="38"
                        spreadMethod="pad">
            <stop offset="0%" stop-color="#C47979"/>
            <stop offset="100%" stop-color="#C4B78D"/>
        </linearGradient>
        <linearGradient id="Gradient_15" gradientUnits="userSpaceOnUse" x1="3.374" y1="42.05" x2="86.725" y2="42.05"
                        spreadMethod="pad">
            <stop offset="0%" stop-color="#C47979"/>
            <stop offset="100%" stop-color="#C4B78D"/>
        </linearGradient>
        <linearGradient id="Gradient_16" gradientUnits="userSpaceOnUse" x1="3.399" y1="46.1" x2="76.9" y2="46.1"
                        spreadMethod="pad">
            <stop offset="0%" stop-color="#C47979"/>
            <stop offset="100%" stop-color="#C4B78D"/>
        </linearGradient>
        <linearGradient id="Gradient_17" gradientUnits="userSpaceOnUse" x1="3.387" y1="50.15" x2="67.012" y2="50.15"
                        spreadMethod="pad">
            <stop offset="0%" stop-color="#C47979"/>
            <stop offset="100%" stop-color="#C4B78D"/>
        </linearGradient>
        <linearGradient id="Gradient_18" gradientUnits="userSpaceOnUse" x1="3.375" y1="54.2" x2="57.125" y2="54.2"
                        spreadMethod="pad">
            <stop offset="0%" stop-color="#C47979"/>
            <stop offset="100%" stop-color="#C4B78D"/>
        </linearGradient>
        <linearGradient id="Gradient_19" gradientUnits="userSpaceOnUse" x1="1.424" y1="96.75" x2="210.575" y2="96.75"
                        spreadMethod="pad">
            <stop offset="0%" stop-color="#C47979"/>
            <stop offset="100%" stop-color="#8989BA"/>
        </linearGradient>
        <linearGradient id="Gradient_20" gradientUnits="userSpaceOnUse" x1="1.249" y1="97.95" x2="159.350" y2="97.95"
                        spreadMethod="pad">
            <stop offset="0%" stop-color="#FF5876"/>
            <stop offset="100%" stop-color="#AEC5D0"/>
        </linearGradient>
        <linearGradient id="Gradient_21" gradientUnits="userSpaceOnUse" x1="23.449" y1="102.55" x2="210.55" y2="102.55"
                        spreadMethod="pad">
            <stop offset="0%" stop-color="#C47979"/>
            <stop offset="100%" stop-color="#8989BA"/>
        </linearGradient>
        <linearGradient id="Gradient_22" gradientUnits="userSpaceOnUse" x1="1.249" y1="97.9" x2="159.350" y2="97.9"
                        spreadMethod="pad">
            <stop offset="0%" stop-color="#FF5876"/>
            <stop offset="100%" stop-color="#AEC5D0"/>
        </linearGradient>
        <linearGradient id="Gradient_23" gradientUnits="userSpaceOnUse" x1="45.512" y1="108.45" x2="210.587" y2="108.45"
                        spreadMethod="pad">
            <stop offset="0%" stop-color="#C47979"/>
            <stop offset="100%" stop-color="#8989BA"/>
        </linearGradient>
        <linearGradient id="Gradient_24" gradientUnits="userSpaceOnUse" x1="67.525" y1="114.25" x2="210.575" y2="114.25"
                        spreadMethod="pad">
            <stop offset="0%" stop-color="#C47979"/>
            <stop offset="100%" stop-color="#8989BA"/>
        </linearGradient>
        <linearGradient id="Gradient_25" gradientUnits="userSpaceOnUse" x1="1.249" y1="97.85" x2="159.350" y2="97.85"
                        spreadMethod="pad">
            <stop offset="0%" stop-color="#FF5876"/>
            <stop offset="100%" stop-color="#AEC5D0"/>
        </linearGradient>
        <linearGradient id="Gradient_26" gradientUnits="userSpaceOnUse" x1="89.6" y1="120.2" x2="210.6" y2="120.2"
                        spreadMethod="pad">
            <stop offset="0%" stop-color="#C47979"/>
            <stop offset="100%" stop-color="#8989BA"/>
        </linearGradient>
        <linearGradient id="Gradient_27" gradientUnits="userSpaceOnUse" x1="111.612" y1="126" x2="210.587" y2="126"
                        spreadMethod="pad">
            <stop offset="0%" stop-color="#C47979"/>
            <stop offset="100%" stop-color="#8989BA"/>
        </linearGradient>
        <linearGradient id="Gradient_28" gradientUnits="userSpaceOnUse" x1="133.687" y1="131.9" x2="210.612" y2="131.9"
                        spreadMethod="pad">
            <stop offset="0%" stop-color="#C47979"/>
            <stop offset="100%" stop-color="#8989BA"/>
        </linearGradient>
        <linearGradient id="Gradient_29" gradientUnits="userSpaceOnUse" x1="155.7" y1="137.8" x2="210.600" y2="137.8"
                        spreadMethod="pad">
            <stop offset="0%" stop-color="#C47979"/>
            <stop offset="100%" stop-color="#8989BA"/>
        </linearGradient>
        <linearGradient id="Gradient_30" gradientUnits="userSpaceOnUse" x1="106.425" y1="169.9" x2="210.575" y2="169.9"
                        spreadMethod="pad">
            <stop offset=".392%" stop-color="#89A8BA"/>
            <stop offset="100%" stop-color="#8989BA"/>
        </linearGradient>
        <linearGradient id="Gradient_31" gradientUnits="userSpaceOnUse" x1="106.425" y1="173.95" x2="190.075"
                        y2="173.95" spreadMethod="pad">
            <stop offset=".392%" stop-color="#89A8BA"/>
            <stop offset="100%" stop-color="#8989BA"/>
        </linearGradient>
        <linearGradient id="Gradient_32" gradientUnits="userSpaceOnUse" x1="106.425" y1="178.05" x2="169.575"
                        y2="178.05" spreadMethod="pad">
            <stop offset=".392%" stop-color="#89A8BA"/>
            <stop offset="100%" stop-color="#8989BA"/>
        </linearGradient>
        <linearGradient id="Gradient_33" gradientUnits="userSpaceOnUse" x1="106.425" y1="182.15" x2="149.075"
                        y2="182.15" spreadMethod="pad">
            <stop offset="0%" stop-color="#89A8BA"/>
            <stop offset="100%" stop-color="#8989BA"/>
        </linearGradient>
        <linearGradient id="Gradient_34" gradientUnits="userSpaceOnUse" x1="106.425" y1="186.2" x2="128.575" y2="186.2"
                        spreadMethod="pad">
            <stop offset="0%" stop-color="#89A8BA"/>
            <stop offset="100%" stop-color="#8989BA"/>
        </linearGradient>
        <linearGradient id="Gradient_35" gradientUnits="userSpaceOnUse" x1="106.425" y1="190.3" x2="108.075" y2="190.3"
                        spreadMethod="pad">
            <stop offset="0%" stop-color="#89A8BA"/>
            <stop offset="100%" stop-color="#8989BA"/>
        </linearGradient>
        <linearGradient id="Gradient_36" gradientUnits="userSpaceOnUse" x1="1.725" y1="169.35" x2="106.475" y2="169.35"
                        spreadMethod="pad">
            <stop offset="0%" stop-color="#6A7983"/>
            <stop offset="100%" stop-color="#89A8BA"/>
        </linearGradient>
        <linearGradient id="Gradient_37" gradientUnits="userSpaceOnUse" x1="1.712" y1="164.15" x2="80.787" y2="164.15"
                        spreadMethod="pad">
            <stop offset="0%" stop-color="#6A7983"/>
            <stop offset="100%" stop-color="#89A8BA"/>
        </linearGradient>
        <linearGradient id="Gradient_38" gradientUnits="userSpaceOnUse" x1="1.762" y1="158.9" x2="55.137" y2="158.9"
                        spreadMethod="pad">
            <stop offset="0%" stop-color="#6A7983"/>
            <stop offset="100%" stop-color="#89A8BA"/>
        </linearGradient>
        <linearGradient id="Gradient_39" gradientUnits="userSpaceOnUse" x1="1.749" y1="153.65" x2="29.450" y2="153.65"
                        spreadMethod="pad">
            <stop offset="0%" stop-color="#6A7983"/>
            <stop offset="100%" stop-color="#89A8BA"/>
        </linearGradient>
        <linearGradient id="Gradient_40" gradientUnits="userSpaceOnUse" x1="1.75" y1="148.4" x2="3.75" y2="148.4"
                        spreadMethod="pad">
            <stop offset="0%" stop-color="#6A7983"/>
            <stop offset="100%" stop-color="#89A8BA"/>
        </linearGradient>
    </defs>
    <g id=".__D0.__9C.__D0.__BE.__D0.__BD.__D1.__82.__D0.__B0.__D0.__B6.__D0.__BD.__D1.__8B.__D0.__B9-.__D0.__BA.__D0.__B0.__D0.__B4.__D1.__80-1r1"
       overflow="visible">
        <g display="none" id="Layer189_0_FILL">
            <path fill="url(#Gradient_1)" stroke="none" d="M210.75 44.8L169 28.5 169 68.5 210.35 85.55 210.75 44.8Z"/>
            <path fill="url(#Gradient_2)" stroke="none"
                  d="M169.3 28.55Q169.302 28.512 169.25 28.5L169.05 28.4Q169.001 28.367 168.95 28.35 168.912 28.397 168.9 28.45 168.867 28.498 168.85 28.55 168.897 28.587 168.95 28.6L169.15 28.7Q169.198 28.732 169.25 28.7 169.287 28.702 169.3 28.65 169.332 28.601 169.3 28.55Z"/>
            <animate begin="logo.mouseover" restart="whenNotActive" attributeName="display" fill="freeze" repeatCount="1" dur="1.5s" keyTimes="0;.622;1"
                     values="none;inline;inline"/>
        </g>
        <g display="none" id="Layer188_0_FILL">
            <path fill="url(#Gradient_3)" stroke="none" d="M197.45 39.55L169 28.5 169 68.5 197.2 80.15 197.45 39.55Z"/>
            <path fill="url(#Gradient_2)" stroke="none"
                  d="M169.3 28.55Q169.302 28.512 169.25 28.5L169.05 28.4Q169.001 28.367 168.95 28.35 168.912 28.397 168.9 28.45 168.867 28.498 168.85 28.55 168.897 28.587 168.95 28.6L169.15 28.7Q169.198 28.732 169.25 28.7 169.287 28.702 169.3 28.65 169.332 28.601 169.3 28.55Z"/>
            <animate begin="logo.mouseover" restart="whenNotActive" attributeName="display" fill="freeze" repeatCount="1" dur="1.5s" keyTimes="0;.6;.622;1"
                     values="none;inline;none;none"/>
        </g>
        <g display="none" id="Layer187_0_FILL">
            <path fill="url(#Gradient_4)" stroke="none" d="M184.1 34.35L169 28.5 169 68.5 184.05 74.75 184.1 34.35Z"/>
            <path fill="url(#Gradient_2)" stroke="none"
                  d="M169.3 28.55Q169.302 28.512 169.25 28.5L169.05 28.4Q169.001 28.367 168.95 28.35 168.912 28.397 168.9 28.45 168.867 28.498 168.85 28.55 168.897 28.587 168.95 28.6L169.15 28.7Q169.198 28.732 169.25 28.7 169.287 28.702 169.3 28.65 169.332 28.601 169.3 28.55Z"/>
            <animate begin="logo.mouseover" restart="whenNotActive" attributeName="display" fill="freeze" repeatCount="1" dur="1.5s" keyTimes="0;.578;.6;1"
                     values="none;inline;none;none"/>
        </g>
        <g display="none" id="Layer186_0_FILL">
            <path fill="url(#Gradient_5)" stroke="none" d="M170.8 29.1L169 28.5 169 68.5 170.9 69.35 170.8 29.1Z"/>
            <path fill="url(#Gradient_2)" stroke="none"
                  d="M169.3 28.55Q169.302 28.512 169.25 28.5L169.05 28.4Q169.001 28.367 168.95 28.35 168.912 28.397 168.9 28.45 168.867 28.498 168.85 28.55 168.897 28.587 168.95 28.6L169.15 28.7Q169.198 28.732 169.25 28.7 169.287 28.702 169.3 28.65 169.332 28.601 169.3 28.55Z"/>
            <animate begin="logo.mouseover" restart="whenNotActive" attributeName="display" fill="freeze" repeatCount="1" dur="1.5s" keyTimes="0;.556;.578;1"
                     values="none;inline;none;none"/>
        </g>
        <g display="none" id="Layer166_0_FILL">
            <path fill="url(#Gradient_6)" stroke="none"
                  d="M105.75 2.75L106.2 44.05 157.95 64.35 158.15 22.5 105.75 2.75Z"/>
            <path fill="url(#Gradient_7)" stroke="none"
                  d="M105.65 2.7Q105.617 2.748 105.6 2.8 105.647 2.837 105.7 2.85L105.9 2.95Q105.948 2.982 106 2.95 106.037 2.952 106.05 2.9 106.082 2.851 106.05 2.8 106.052 2.762 106 2.75L105.8 2.65Q105.751 2.617 105.7 2.6 105.662 2.647 105.65 2.7Z"/>
            <animate begin="logo.mouseover" restart="whenNotActive" attributeName="display" fill="freeze" repeatCount="1" dur="1.5s" keyTimes="0;.556;1"
                     values="none;inline;inline"/>
        </g>
        <g display="none" id="Layer165_0_FILL">
            <path fill="url(#Gradient_8)" stroke="none"
                  d="M105.75 2.75L106.2 44.05 145.5 59.45 145.7 17.85 105.75 2.75Z"/>
            <path fill="url(#Gradient_7)" stroke="none"
                  d="M105.65 2.7Q105.617 2.748 105.6 2.8 105.647 2.837 105.7 2.85L105.9 2.95Q105.948 2.982 106 2.95 106.037 2.952 106.05 2.9 106.082 2.851 106.05 2.8 106.052 2.762 106 2.75L105.8 2.65Q105.751 2.617 105.7 2.6 105.662 2.647 105.65 2.7Z"/>
            <animate begin="logo.mouseover" restart="whenNotActive" attributeName="display" fill="freeze" repeatCount="1" dur="1.5s" keyTimes="0;.533;.556;1"
                     values="none;inline;none;none"/>
        </g>
        <g display="none" id="Layer164_0_FILL">
            <path fill="url(#Gradient_9)" stroke="none"
                  d="M105.75 2.75L106.2 44.05 133 54.6 133.25 13.15 105.75 2.75Z"/>
            <path fill="url(#Gradient_7)" stroke="none"
                  d="M105.65 2.7Q105.617 2.748 105.6 2.8 105.647 2.837 105.7 2.85L105.9 2.95Q105.948 2.982 106 2.95 106.037 2.952 106.05 2.9 106.082 2.851 106.05 2.8 106.052 2.762 106 2.75L105.8 2.65Q105.751 2.617 105.7 2.6 105.662 2.647 105.65 2.7Z"/>
            <animate begin="logo.mouseover" restart="whenNotActive" attributeName="display" fill="freeze" repeatCount="1" dur="1.5s" keyTimes="0;.511;.533;1"
                     values="none;inline;none;none"/>
        </g>
        <g display="none" id="Layer163_0_FILL">
            <path fill="url(#Gradient_10)" stroke="none" d="M120.8 8.5L105.75 2.75 106.2 44.05 120.55 49.7 120.8 8.5Z"/>
            <path fill="url(#Gradient_7)" stroke="none"
                  d="M105.65 2.7Q105.617 2.748 105.6 2.8 105.647 2.837 105.7 2.85L105.9 2.95Q105.948 2.982 106 2.95 106.037 2.952 106.05 2.9 106.082 2.851 106.05 2.8 106.052 2.762 106 2.75L105.8 2.65Q105.751 2.617 105.7 2.6 105.662 2.647 105.65 2.7Z"/>
            <animate begin="logo.mouseover" restart="whenNotActive" attributeName="display" fill="freeze" repeatCount="1" dur="1.5s" keyTimes="0;.489;.511;1"
                     values="none;inline;none;none"/>
        </g>
        <g display="none" id="Layer162_0_FILL">
            <path fill="url(#Gradient_11)" stroke="none"
                  d="M108.35 3.8L105.75 2.75 106.2 44.05 108.05 44.8 108.35 3.8Z"/>
            <path fill="url(#Gradient_7)" stroke="none"
                  d="M105.65 2.7Q105.617 2.748 105.6 2.8 105.647 2.837 105.7 2.85L105.9 2.95Q105.948 2.982 106 2.95 106.037 2.952 106.05 2.9 106.082 2.851 106.05 2.8 106.052 2.762 106 2.75L105.8 2.65Q105.751 2.617 105.7 2.6 105.662 2.647 105.65 2.7Z"/>
            <animate begin="logo.mouseover" restart="whenNotActive" attributeName="display" fill="freeze" repeatCount="1" dur="1.5s" keyTimes="0;.467;.489;1"
                     values="none;inline;none;none"/>
        </g>
        <g display="none" id="Layer138_0_FILL">
            <path fill="url(#Gradient_12)" stroke="none" d="M106.2 44.05L106.5 2.5 3.4 43.65 53.9 65.4 106.2 44.05Z"/>
            <path fill="url(#Gradient_13)" stroke="none"
                  d="M3.65 43.4Q3.598 43.417 3.55 43.45L3.35 43.55Q3.297 43.562 3.25 43.6 3.267 43.651 3.3 43.7 3.312 43.752 3.35 43.75 3.401 43.782 3.45 43.75L3.65 43.65Q3.702 43.637 3.7 43.6 3.732 43.548 3.7 43.5 3.687 43.447 3.65 43.4Z"/>
            <animate begin="logo.mouseover" restart="whenNotActive" attributeName="display" fill="freeze" repeatCount="1" dur="1.5s" keyTimes="0;.467;1"
                     values="none;inline;inline"/>
        </g>
        <g display="none" id="Layer137_0_FILL">
            <path fill="url(#Gradient_14)" stroke="none" d="M96.4 48.1L86.2 10.6 3.4 43.65 53.9 65.4 96.4 48.1Z"/>
            <path fill="url(#Gradient_13)" stroke="none"
                  d="M3.65 43.4Q3.598 43.417 3.55 43.45L3.35 43.55Q3.297 43.562 3.25 43.6 3.267 43.651 3.3 43.7 3.312 43.752 3.35 43.75 3.401 43.782 3.45 43.75L3.65 43.65Q3.702 43.637 3.7 43.6 3.732 43.548 3.7 43.5 3.687 43.447 3.65 43.4Z"/>
            <animate begin="logo.mouseover" restart="whenNotActive" attributeName="display" fill="freeze" repeatCount="1" dur="1.5s" keyTimes="0;.444;.467;1"
                     values="none;inline;none;none"/>
        </g>
        <g display="none" id="Layer136_0_FILL">
            <path fill="url(#Gradient_15)" stroke="none" d="M65.85 18.7L3.4 43.65 53.9 65.4 86.6 52.15 65.85 18.7Z"/>
            <path fill="url(#Gradient_13)" stroke="none"
                  d="M3.65 43.4Q3.598 43.417 3.55 43.45L3.35 43.55Q3.297 43.562 3.25 43.6 3.267 43.651 3.3 43.7 3.312 43.752 3.35 43.75 3.401 43.782 3.45 43.75L3.65 43.65Q3.702 43.637 3.7 43.6 3.732 43.548 3.7 43.5 3.687 43.447 3.65 43.4Z"/>
            <animate begin="logo.mouseover" restart="whenNotActive" attributeName="display" fill="freeze" repeatCount="1" dur="1.5s" keyTimes="0;.422;.444;1"
                     values="none;inline;none;none"/>
        </g>
        <g display="none" id="Layer135_0_FILL">
            <path fill="url(#Gradient_16)" stroke="none" d="M53.9 65.4L76.75 56.15 45.55 26.85 3.4 43.65 53.9 65.4Z"/>
            <path fill="url(#Gradient_13)" stroke="none"
                  d="M3.65 43.4Q3.598 43.417 3.55 43.45L3.35 43.55Q3.297 43.562 3.25 43.6 3.267 43.651 3.3 43.7 3.312 43.752 3.35 43.75 3.401 43.782 3.45 43.75L3.65 43.65Q3.702 43.637 3.7 43.6 3.732 43.548 3.7 43.5 3.687 43.447 3.65 43.4Z"/>
            <animate begin="logo.mouseover" restart="whenNotActive" attributeName="display" fill="freeze" repeatCount="1" dur="1.5s" keyTimes="0;.4;.422;1"
                     values="none;inline;none;none"/>
        </g>
        <g display="none" id="Layer134_0_FILL">
            <path fill="url(#Gradient_17)" stroke="none" d="M25.2 34.95L3.4 43.65 53.9 65.4 66.95 60.2 25.2 34.95Z"/>
            <path fill="url(#Gradient_13)" stroke="none"
                  d="M3.65 43.4Q3.598 43.417 3.55 43.45L3.35 43.55Q3.297 43.562 3.25 43.6 3.267 43.651 3.3 43.7 3.312 43.752 3.35 43.75 3.401 43.782 3.45 43.75L3.65 43.65Q3.702 43.637 3.7 43.6 3.732 43.548 3.7 43.5 3.687 43.447 3.65 43.4Z"/>
            <animate begin="logo.mouseover" restart="whenNotActive" attributeName="display" fill="freeze" repeatCount="1" dur="1.5s" keyTimes="0;.378;.4;1"
                     values="none;inline;none;none"/>
        </g>
        <g display="none" id="Layer133_0_FILL">
            <path fill="url(#Gradient_18)" stroke="none" d="M4.9 43.05L3.4 43.65 53.9 65.4 57.15 64.25 4.9 43.05Z"/>
            <path fill="url(#Gradient_13)" stroke="none"
                  d="M3.65 43.4Q3.598 43.417 3.55 43.45L3.35 43.55Q3.297 43.562 3.25 43.6 3.267 43.651 3.3 43.7 3.312 43.752 3.35 43.75 3.401 43.782 3.45 43.75L3.65 43.65Q3.702 43.637 3.7 43.6 3.732 43.548 3.7 43.5 3.687 43.447 3.65 43.4Z"/>
            <animate begin="logo.mouseover" restart="whenNotActive" attributeName="display" fill="freeze" repeatCount="1" dur="1.5s" keyTimes="0;.356;.378;1"
                     values="none;inline;none;none"/>
        </g>
        <g display="none" id="Layer104_0_FILL">
            <path fill="url(#Gradient_19)" stroke="none" d="M2.05 44.8L1.45 86.5 158.5 148.75 210.6 128.05 2.05 44.8Z"/>
            <path fill="url(#Gradient_20)" stroke="none"
                  d="M155.7 147.6Q155.667 147.648 155.65 147.7 155.697 147.737 155.75 147.75L155.95 147.85Q155.998 147.882 156.05 147.85 156.087 147.852 156.1 147.8 156.132 147.751 156.1 147.7 156.102 147.662 156.05 147.65L155.85 147.55Q155.801 147.517 155.75 147.5 155.712 147.547 155.7 147.6M2.35 44.85Q2.352 44.812 2.3 44.8L2.1 44.7Q2.051 44.667 2 44.65 1.962 44.697 1.95 44.75 1.917 44.798 1.9 44.85 1.947 44.887 2 44.9L2.2 45Q2.248 45.032 2.3 45 2.337 45.002 2.35 44.95 2.382 44.901 2.35 44.85Z"/>
            <animate begin="logo.mouseover" restart="whenNotActive" attributeName="display" fill="freeze" repeatCount="1" dur="1.5s" keyTimes="0;.356;1"
                     values="none;inline;inline"/>
        </g>
        <g display="none" id="Layer103_0_FILL">
            <path fill="url(#Gradient_21)" stroke="none" d="M31.45 56.5L23.5 95.2 158.5 148.7 210.6 128 31.45 56.5Z"/>
            <path fill="url(#Gradient_22)" stroke="none"
                  d="M23.55 94.85Q23.512 94.897 23.5 94.95L23.4 95.15Q23.367 95.198 23.35 95.25 23.397 95.287 23.45 95.3 23.498 95.332 23.55 95.3 23.587 95.302 23.6 95.25L23.7 95.05Q23.732 95.001 23.7 94.95 23.702 94.912 23.65 94.9 23.601 94.867 23.55 94.85M163.35 146.9Q163.402 146.887 163.4 146.85 163.432 146.798 163.4 146.75 163.387 146.697 163.35 146.65 163.298 146.667 163.25 146.7L163.05 146.8Q162.997 146.812 162.95 146.85 162.967 146.901 163 146.95 163.012 147.002 163.05 147 163.101 147.032 163.15 147L163.35 146.9Z"/>
            <animate begin="logo.mouseover" restart="whenNotActive" attributeName="display" fill="freeze" repeatCount="1" dur="1.5s" keyTimes="0;.333;.356;1"
                     values="none;inline;none;none"/>
        </g>
        <g display="none" id="Layer102_0_FILL">
            <path fill="url(#Gradient_23)" stroke="none" d="M60.9 68.25L45.5 103.95 158.5 148.7 210.6 128 60.9 68.25Z"/>
            <path fill="url(#Gradient_22)" stroke="none"
                  d="M133.25 138.8Q133.298 138.832 133.35 138.8 133.387 138.802 133.4 138.75 133.432 138.701 133.4 138.65 133.402 138.612 133.35 138.6L133.15 138.5Q133.101 138.467 133.05 138.45 133.012 138.497 133 138.55 132.967 138.598 132.95 138.65 132.997 138.687 133.05 138.7L133.25 138.8M45.6 104L45.7 103.8Q45.732 103.751 45.7 103.7 45.702 103.662 45.65 103.65 45.601 103.617 45.55 103.6 45.512 103.647 45.5 103.7L45.4 103.9Q45.367 103.948 45.35 104 45.397 104.037 45.45 104.05 45.498 104.082 45.55 104.05 45.587 104.052 45.6 104Z"/>
            <animate begin="logo.mouseover" restart="whenNotActive" attributeName="display" fill="freeze" repeatCount="1" dur="1.5s" keyTimes="0;.311;.333;1"
                     values="none;inline;none;none"/>
        </g>
        <g display="none" id="Layer101_0_FILL">
            <path fill="url(#Gradient_24)" stroke="none"
                  d="M90.3 79.95L67.55 112.65 158.5 148.65 210.6 127.95 90.3 79.95Z"/>
            <path fill="url(#Gradient_25)" stroke="none"
                  d="M104.55 127.15Q104.501 127.117 104.45 127.1 104.412 127.147 104.4 127.2 104.367 127.248 104.35 127.3 104.397 127.337 104.45 127.35L104.65 127.45Q104.698 127.482 104.75 127.45 104.787 127.452 104.8 127.4 104.832 127.351 104.8 127.3 104.802 127.262 104.75 127.25L104.55 127.15M67.6 112.3Q67.562 112.347 67.55 112.4L67.45 112.6Q67.417 112.648 67.4 112.7 67.447 112.737 67.5 112.75 67.548 112.782 67.6 112.75 67.637 112.752 67.65 112.7L67.75 112.5Q67.782 112.451 67.75 112.4 67.752 112.362 67.7 112.35 67.651 112.317 67.6 112.3Z"/>
            <animate begin="logo.mouseover" restart="whenNotActive" attributeName="display" fill="freeze" repeatCount="1" dur="1.5s" keyTimes="0;.289;.311;1"
                     values="none;inline;none;none"/>
        </g>
        <g display="none" id="Layer100_0_FILL">
            <path fill="url(#Gradient_26)" stroke="none" d="M89.6 121.4L158.5 148.7 210.6 128 119.75 91.7 89.6 121.4Z"/>
            <path fill="url(#Gradient_22)" stroke="none"
                  d="M89.9 121.3Q89.930 121.257 89.9 121.2 89.930 121.142 89.9 121.1 89.857 121.069 89.8 121.05 89.742 121.069 89.7 121.1L89.5 121.3Q89.469 121.342 89.45 121.4 89.469 121.457 89.5 121.5 89.542 121.530 89.6 121.5 89.657 121.530 89.7 121.5L89.9 121.3Z"/>
            <animate begin="logo.mouseover" restart="whenNotActive" attributeName="display" fill="freeze" repeatCount="1" dur="1.5s" keyTimes="0;.267;.289;1"
                     values="none;inline;none;none"/>
        </g>
        <g display="none" id="Layer99_0_FILL">
            <path fill="url(#Gradient_27)" stroke="none"
                  d="M149.15 103.4L111.65 130.1 158.5 148.65 210.6 127.95 149.15 103.4Z"/>
            <path fill="url(#Gradient_25)" stroke="none"
                  d="M111.9 129.85Q111.848 129.867 111.8 129.9L111.6 130Q111.547 130.012 111.5 130.05 111.517 130.101 111.55 130.15 111.562 130.202 111.6 130.2 111.651 130.232 111.7 130.2L111.9 130.1Q111.952 130.087 111.95 130.05 111.982 129.998 111.95 129.95 111.937 129.897 111.9 129.85Z"/>
            <animate begin="logo.mouseover" restart="whenNotActive" attributeName="display" fill="freeze" repeatCount="1" dur="1.5s" keyTimes="0;.244;.267;1"
                     values="none;inline;none;none"/>
        </g>
        <g display="none" id="Layer98_0_FILL">
            <path fill="url(#Gradient_28)" stroke="none"
                  d="M210.6 127.95L178.6 115.15 133.65 138.85 158.5 148.65 210.6 127.95Z"/>
            <path fill="url(#Gradient_25)" stroke="none"
                  d="M133.95 138.8Q133.982 138.748 133.95 138.7 133.937 138.647 133.9 138.6 133.848 138.617 133.8 138.65L133.6 138.75Q133.547 138.762 133.5 138.8 133.517 138.851 133.55 138.9 133.562 138.952 133.6 138.95 133.651 138.982 133.7 138.95L133.9 138.85Q133.952 138.837 133.95 138.8Z"/>
            <animate begin="logo.mouseover" restart="whenNotActive" attributeName="display" fill="freeze" repeatCount="1" dur="1.5s" keyTimes="0;.222;.244;1"
                     values="none;inline;none;none"/>
        </g>
        <g display="none" id="Layer97_0_FILL">
            <path fill="url(#Gradient_29)" stroke="none" d="M210.6 128L208 126.95 155.7 147.65 158.5 148.7 210.6 128Z"/>
            <path fill="url(#Gradient_22)" stroke="none"
                  d="M208.3 127Q208.302 126.962 208.25 126.95L208.05 126.85Q208.001 126.817 207.95 126.8 207.912 126.847 207.9 126.9 207.867 126.948 207.85 127 207.897 127.037 207.95 127.05L208.15 127.15Q208.198 127.182 208.25 127.15 208.287 127.152 208.3 127.1 208.332 127.051 208.3 127Z"/>
            <animate begin="logo.mouseover" restart="whenNotActive" attributeName="display" fill="freeze" repeatCount="1" dur="1.5s" keyTimes="0;.2;.222;1"
                     values="none;inline;none;none"/>
        </g>
        <g display="none" id="Layer61_0_FILL">
            <path fill="url(#Gradient_30)" stroke="none"
                  d="M210.6 169.3L210.6 128 106.45 169.45 106.5 211.8 210.6 169.3Z"/>
            <animate begin="logo.mouseover" restart="whenNotActive" attributeName="display" fill="freeze" repeatCount="1" dur="1.5s" keyTimes="0;.2;1"
                     values="none;inline;inline"/>
        </g>
        <g display="none" id="Layer60_0_FILL">
            <path fill="url(#Gradient_31)" stroke="none"
                  d="M190.1 177.65L190.1 136.1 106.45 169.4 106.5 211.75 190.1 177.65Z"/>
            <animate begin="logo.mouseover" restart="whenNotActive" attributeName="display" fill="freeze" repeatCount="1" dur="1.5s" keyTimes="0;.178;.2;1"
                     values="none;inline;none;none"/>
        </g>
        <g display="none" id="Layer59_0_FILL">
            <path fill="url(#Gradient_32)" stroke="none"
                  d="M169.6 186.05L169.55 144.35 106.45 169.45 106.5 211.8 169.6 186.05Z"/>
            <animate begin="logo.mouseover" restart="whenNotActive" attributeName="display" fill="freeze" repeatCount="1" dur="1.5s" keyTimes="0;.156;.178;1"
                     values="none;inline;none;none"/>
        </g>
        <g display="none" id="Layer58_0_FILL">
            <path fill="url(#Gradient_33)" stroke="none"
                  d="M149.1 194.45L149.05 152.5 106.45 169.45 106.5 211.8 149.1 194.45Z"/>
            <animate begin="logo.mouseover" restart="whenNotActive" attributeName="display" fill="freeze" repeatCount="1" dur="1.5s" keyTimes="0;.133;.156;1"
                     values="none;inline;none;none"/>
        </g>
        <g display="none" id="Layer57_0_FILL">
            <path fill="url(#Gradient_34)" stroke="none"
                  d="M128.5 160.7L106.45 169.45 106.5 211.8 128.6 202.8 128.5 160.7Z"/>
            <animate begin="logo.mouseover" restart="whenNotActive" attributeName="display" fill="freeze" repeatCount="1" dur="1.5s" keyTimes="0;.111;.133;1"
                     values="none;inline;none;none"/>
        </g>
        <g display="none" id="Layer56_0_FILL">
            <path fill="url(#Gradient_35)" stroke="none"
                  d="M108 168.85L106.45 169.45 106.5 211.8 108.1 211.2 108 168.85Z"/>
            <animate begin="logo.mouseover" restart="whenNotActive" attributeName="display" fill="freeze" repeatCount="1" dur="1.5s" keyTimes="0;.089;.111;1"
                     values="none;inline;none;none"/>
        </g>
        <g display="none" id="Layer15_0_FILL">
            <path fill="url(#Gradient_36)" stroke="none"
                  d="M1.75 126.9L2.1 169.2 106.5 211.8 106.45 168.7 1.75 126.9Z"/>
            <animate begin="logo.mouseover" restart="whenNotActive" attributeName="display" fill="freeze" repeatCount="1" dur="1.5s" keyTimes="0;.089;1"
                     values="none;inline;inline"/>
        </g>
        <g display="none" id="Layer14_0_FILL">
            <path fill="url(#Gradient_37)" stroke="none"
                  d="M80.75 158.25L1.75 126.9 2.1 169.2 80.8 201.35 80.75 158.25Z"/>
            <animate begin="logo.mouseover" restart="whenNotActive" attributeName="display" fill="freeze" repeatCount="1" dur="1.5s" keyTimes="0;.067;.089;1"
                     values="none;inline;none;none"/>
        </g>
        <g display="none" id="Layer13_0_FILL">
            <path fill="url(#Gradient_38)" stroke="none"
                  d="M55.1 147.85L1.75 126.9 2.1 169.2 55.15 190.95 55.1 147.85Z"/>
            <animate begin="logo.mouseover" restart="whenNotActive" attributeName="display" fill="freeze" repeatCount="1" dur="1.5s" keyTimes="0;.044;.067;1"
                     values="none;inline;none;none"/>
        </g>
        <g display="none" id="Layer12_0_FILL">
            <path fill="url(#Gradient_39)" stroke="none"
                  d="M29.4 137.35L1.75 126.85 2.1 169.15 29.45 180.45 29.4 137.35Z"/>
            <animate begin="logo.mouseover" restart="whenNotActive" attributeName="display" fill="freeze" repeatCount="1" dur="1.5s" keyTimes="0;.022;.044;1"
                     values="none;inline;none;none"/>
        </g>
        <g id="Layer11_0_FILL">
            <path fill="url(#Gradient_40)" stroke="none" d="M3.7 126.9L1.75 126.85 2.1 169.15 3.75 170 3.7 126.9Z"/>
            <animate begin="logo.mouseover" restart="whenNotActive" attributeName="display" fill="freeze" repeatCount="1" dur="1.5s" keyTimes="0;.022;1"
                     values="inline;none;none"/>
        </g>
        <path fill="#000" stroke="none"
              d="M53.45 146.2Q52.6 146.6 52.3 147.35 51.95 148.15 52.3 148.95 52.65 149.75 53.45 150.1L105.6 170.95Q106.4 171.25 107.15 170.95L159.3 150.1Q160.15 149.75 160.5 148.9 160.8 148.1 160.45 147.35 160.1 146.55 159.3 146.2L107.15 125.35Q106.4 125.05 105.6 125.35L53.45 146.2M152.95 148.15L106.4 166.75 59.85 148.15 106.4 129.5 152.95 148.15Z"/>
        <path fill="#000" stroke="none"
              d="M107.2 .2Q106.45 -.15 105.6 .15L1.3 41.9Q.45 42.2 .15 43.05 -.15 43.85 .15 44.65 .5 45.45 1.3 45.75L53.45 66.6Q54.25 66.9 55 66.6L107 45.8Q108.45 45.4 108.45 43.85L108.45 2.1Q108.45 1.7 108.3 1.3 108 .5 107.2 .2M104.3 5.15L104.3 42.4 54.2 62.45 7.65 43.85 104.3 5.15Z"/>
        <path fill="#000" stroke="none"
              d="M212.6 126.5Q212.3 125.7 211.5 125.35L2.85 41.9Q2.5 41.75 2.05 41.75 1.2 41.75 .6 42.35 0 43 0 43.85L0 85.55Q0 87.05 1.45 87.55L157.75 150.1Q158.55 150.45 159.3 150.1L211.5 129.2Q212.35 128.85 212.65 128.05 212.95 127.25 212.6 126.5M4.15 84.15L4.15 46.9 205.1 127.3 158.55 145.9 4.15 84.15Z"/>
        <path fill="#000" stroke="none"
              d="M211.55 125.3Q210.75 124.95 209.95 125.3L105.75 166.95Q104.3 167.45 104.3 168.95L104.3 210.7 104.45 211.45Q104.8 212.25 105.6 212.6 106.35 212.9 107.15 212.6L211.35 170.95Q212 170.75 212.4 170.2 212.8 169.65 212.8 168.95L212.8 127.25Q212.8 126.85 212.65 126.45 212.3 125.65 211.55 125.3M208.65 130.3L208.65 167.55 108.5 207.6 108.5 170.35 208.65 130.3Z"/>
        <path fill="#000" stroke="none"
              d="M.6 125.8Q0 126.45 0 127.3L0 169Q0 170.6 1.45 171L105.6 212.7 105.6 212.65Q106 212.8 106.4 212.8 107.25 212.8 107.85 212.2 108.45 211.6 108.45 210.75L108.45 169Q108.45 167.5 107 167L2.85 125.35Q2.5 125.2 2.05 125.2 1.2 125.2 .6 125.8M4.15 167.6L4.15 130.35 104.3 170.4 104.3 207.65 4.15 167.6Z"/>
        <path fill="#000" stroke="none"
              d="M107.1 41.9Q106.35 41.6 105.55 41.9L53.4 62.75Q52.6 63.05 52.25 63.9 51.9 64.7 52.25 65.5 52.6 66.3 53.4 66.6L105.55 87.5Q106.35 87.8 107.1 87.5L159.25 66.6Q160.05 66.3 160.45 65.45 160.75 64.65 160.4 63.9 160.05 63.1 159.25 62.75L107.1 41.9M152.9 64.7L106.35 83.3 59.8 64.7 106.35 46.05 152.9 64.7Z"/>
        <path fill="#000" stroke="none"
              d="M212.4 42.55Q212 42 211.35 41.8L169.75 25.15 169 25Q168.15 25 167.5 25.6 166.9 26.25 166.9 27.1L166.9 68.8Q166.9 69.5 167.3 70.05 167.7 70.6 168.35 70.8L209.95 87.45 210.7 87.6Q211.55 87.6 212.2 87 212.8 86.35 212.8 85.5L212.8 43.75Q212.8 43.1 212.4 42.55M171.05 30.15L208.6 45.2 208.6 82.45 171.05 67.4 171.05 30.15Z"/>
        <path fill="#000" stroke="none"
              d="M160.6 22.9Q160.6 21.4 159.15 20.9L107.1 .1Q106.3 -.2 105.55 .15 104.75 .45 104.4 1.25 104.25 1.65 104.25 2.05L104.25 43.75Q104.25 44.45 104.65 45 105.05 45.55 105.7 45.75L157.7 66.55Q158.1 66.7 158.5 66.7 159.35 66.7 160 66.1 160.6 65.5 160.6 64.65L160.6 22.9M108.45 42.35L108.45 5.1 156.4 24.3 156.4 61.55 108.45 42.35Z"/>
        <path fill="#000" stroke="none"
              d="M328.9 34.75L328.9 29.25Q324.6 25.25 319.1 23.1 313.6 20.95 307.7 21 294.25 20.95 284.7 30.35 275.1 39.8 275 53.25 274.9 66.7 284.3 76.3 293.75 85.9 307.2 86L307.9 86Q313.7 86 319.15 83.95 324.55 81.95 328.9 78.15L328.9 72.65Q324.8 77.1 319.3 79.6 313.75 82.1 307.7 82.2 297.05 82.2 288.75 75 279.35 66.8 279.35 53.75 279.35 41.65 287.45 33.3 295.6 24.8 307.65 24.8 313.8 24.8 319.35 27.4 324.9 30 328.9 34.75M372.2 25.65L372.2 21.85 335.35 21.85 335.35 25.65 351.7 25.65 351.7 84.95 355.85 84.95 355.85 25.65 372.2 25.65M418.15 84.95L422.7 84.95 396.5 20 369.95 84.95 374.5 84.95 382.9 64.25 409.75 64.25 418.15 84.95M384.4 60.45L396.4 30.55 408.25 60.45 384.4 60.45M444.2 72.85Q444.75 69.5 444.75 62.35L444.75 25.65 471.95 25.65 471.95 84.95 476.1 84.95 476.1 21.85 440.6 21.85 440.6 62.35Q440.6 68.85 440.15 71.85 439.4 76.8 437 79.25 434.4 81.8 430.85 81.7 429.1 81.7 427.35 81.15L427.35 84.95Q429.25 85.45 431.1 85.5 433.7 85.6 436.1 84.6 438.5 83.6 440.3 81.7 443.25 78.5 444.2 72.85M508.25 49L497.3 49 497.3 21.85 493.15 21.85 493.15 84.95 509.6 84.95Q519.9 84.95 525.35 79.15 530 74.2 530 66.3 530 49 508.25 49M507.15 52.8Q511.3 52.8 513.3 53.05 516.7 53.45 519.15 54.7 525.7 58.1 525.7 66.3 525.7 73.2 521.7 77 518.9 79.7 514.6 80.65 512.15 81.15 507.9 81.15L497.3 81.15 497.3 52.8 507.15 52.8Z"/>
        <path fill="#000" stroke="none"
              d="M307.05 143.65Q307.05 136.45 302.5 132.2 297.8 127.85 289.65 127.85L275.85 127.85 275.85 190.9 293.15 190.9Q301.9 190.9 307.25 186.2 312.75 181.4 312.75 173.25 312.75 167.05 309.3 162.8 305.8 158.4 299.7 157.45 307.05 152.95 307.05 143.65M288.05 131.65Q291.4 131.65 293.4 132.05 296.5 132.65 298.55 134.3 300.7 136.15 301.8 138.7 302.95 141.3 302.8 144.1 302.8 150.4 298.65 153.75 296.75 155.35 294.5 155.95 292.8 156.4 290.05 156.4L280.05 156.4 280.05 131.65 288.05 131.65M280.05 187.15L280.05 160.2 289.85 160.2Q297.6 160.2 301.7 162 308.4 165.05 308.4 173.7 308.5 176.45 307.45 179 306.4 181.5 304.35 183.35 301.55 185.85 297.5 186.7 295.1 187.15 290.6 187.15L280.05 187.15M461.1 127.85L456.95 127.85 456.95 154.6 418.75 154.6 418.75 127.85 414.55 127.85 414.55 190.9 418.75 190.9 418.75 158.4 456.95 158.4 456.95 190.9 461.1 190.9 461.1 127.85M352.55 127.85L348.4 127.85 348.4 192.55 393.4 138.35 393.4 190.9 397.55 190.9 397.55 127.2 352.55 181.35 352.55 127.85M618.8 155L607.85 155 607.85 127.85 603.7 127.85 603.7 190.9 620.15 190.9Q630.5 190.9 635.9 185.15 640.55 180.15 640.55 172.3 640.55 155 618.8 155M629.7 160.65Q633.3 162.5 634.85 165.7 636.2 168.4 636.2 172.3 636.2 179.25 632.25 183 629.45 185.7 625.15 186.65 622.7 187.15 618.45 187.15L607.85 187.15 607.85 158.75 617.7 158.75Q621.85 158.75 623.85 159 627.25 159.4 629.7 160.65M561.5 190.9L565.65 190.9 565.65 160.95 573.8 160.95Q582.1 160.95 587.05 156.55 592.15 152.05 592.15 144.3 592.15 136.5 586.8 132.05 581.8 127.85 573.7 127.85L561.5 127.85 561.5 190.9M565.7 157.15L565.7 131.65 573.35 131.65Q580.15 131.65 584 135.1 587.8 138.45 587.8 144.4 587.8 150.3 584 153.75 580.25 157.15 574 157.15L565.7 157.15M507.8 131.65L507.8 127.85 470.95 127.85 470.95 131.65 487.3 131.65 487.3 190.9 491.45 190.9 491.45 131.65 507.8 131.65M547.9 131.65L547.9 127.85 517.65 127.85 517.65 190.9 547.9 190.9 547.9 187.15 521.8 187.15 521.8 158.3 547.35 158.3 547.35 154.5 521.8 154.5 521.8 131.65 547.9 131.65M733.05 190.9L741.45 170.2 768.3 170.2 776.75 190.9 781.25 190.9 755.1 125.95 728.5 190.9 733.05 190.9M766.8 166.45L742.95 166.45 755 136.55 766.8 166.45M683.7 127.85L653.45 127.85 653.45 190.9 683.7 190.9 683.7 187.15 657.6 187.15 657.6 158.3 683.1 158.3 683.1 154.5 657.6 154.5 657.6 131.65 683.7 131.65 683.7 127.85M727.95 144.3Q727.95 136.5 722.6 132.05 717.55 127.85 709.5 127.85L697.3 127.85 697.3 190.9 701.45 190.9 701.45 160.95 709.6 160.95Q717.85 160.95 722.85 156.55 727.95 152.05 727.95 144.3M701.45 131.65L709.1 131.65Q715.95 131.65 719.8 135.1 723.6 138.45 723.6 144.4 723.6 150.3 719.8 153.75 716 157.15 709.8 157.15L701.45 157.15 701.45 131.65M823.25 127.85L818.7 127.85 804.35 154.8 790.05 127.85 785.5 127.85 802.05 158.75 784.75 190.9 789.3 190.9 804.35 162.55 819.55 190.9 824.1 190.9 806.8 158.75 823.25 127.85Z"/>
    </g>
</svg>