<svg class="logo" viewBox="0 0 350 119" fill="none" xmlns="http://www.w3.org/2000/svg">
<g filter="url(#filter0_d_1_40)">
<path d="M92.715 101.507L33.005 101.507C25.2198 101.547 17.7377 98.4922 12.2046 93.0155C6.67136 87.5387 3.54028 80.0884 3.5 72.3032L3.5 14.0072L63.2082 14.0072C70.9937 13.9672 78.4763 17.0215 84.0098 22.4983C89.5434 27.9751 92.6747 35.4257 92.715 43.2112L92.715 101.507Z" fill="url(#paint0_linear_1_40)"/>
</g>
<path fill-rule="evenodd" clip-rule="evenodd" d="M68.2831 61.247L49.5458 53.722L58.2731 50.3743L58.7491 50.1888V41.6138L48.1038 37.2388L47.6751 37.4138C41.1803 40.0038 34.6889 42.6002 28.2011 45.203L27.7496 45.378V53.9635L27.8546 54.0055C34.1989 56.5442 40.5403 59.0898 46.8788 61.6425L38.0658 65.0848L27.8003 61.0983L27.5693 61.009V70.004L48.1791 77.9455L48.6026 77.781L68.7521 70.0023V61.4273L68.2831 61.247ZM48.6306 38.602L57.6833 42.3208V49.0443L48.6306 45.3238V38.602ZM48.1056 46.2443L56.7961 49.816L48.1143 53.141L39.5936 49.7198L48.1056 46.2443ZM47.5806 38.5915V45.322L38.2811 49.1073L29.8321 45.6878L47.5806 38.5915ZM28.8241 53.2618V46.547L66.7833 61.7825L58.1768 65.055L28.8241 53.2618ZM28.6491 69.2918V62.5595L47.6208 69.9445L47.6366 76.6243L28.6491 69.2918ZM48.1756 69.0135L39.5341 65.6553L48.3243 62.2218L56.8486 65.6448L48.1756 69.0135ZM67.7038 69.2918L48.7233 76.6208L48.7076 69.9393L67.7038 62.5595V69.2918Z" fill="white"/>
<path fill-rule="evenodd" clip-rule="evenodd" d="M60.0353 42.1528V51.1566L68.6978 54.7161V45.7123L60.0353 42.1528ZM67.6338 53.1376L61.0993 50.4531V43.7296L67.6338 46.4141V53.1376Z" fill="white"/>
<path d="M114.71 42.1736C115.39 43.9219 116.413 45.5172 117.716 46.8665C119.012 48.2168 120.577 49.2808 122.31 49.9888C124.043 50.6965 125.905 51.0326 127.775 50.9757C130.276 51.0264 132.74 50.374 134.888 49.0933C137.036 47.8124 138.78 45.9543 139.925 43.7305L140.025 43.5434H136.573L136.541 43.5998C135.547 45.0475 134.208 46.2245 132.644 47.0246C131.081 47.8244 129.343 48.2215 127.587 48.1807C126.125 48.2138 124.673 47.928 123.334 47.3416C121.994 46.7552 120.799 45.8825 119.832 44.7858C117.794 42.5977 116.682 39.7063 116.729 36.7168C116.715 35.2736 116.988 33.8423 117.533 32.5059C118.078 31.1695 118.885 29.9542 119.904 28.9324C120.88 27.8709 122.068 27.0277 123.392 26.4569C124.716 25.8861 126.146 25.6012 127.587 25.6204C129.356 25.6183 131.095 26.0566 132.651 26.897C134.207 27.7372 135.529 28.9529 136.496 30.4329L136.541 30.4816H140.024L139.923 30.3064C138.843 27.9762 137.099 26.0171 134.91 24.6745C132.721 23.3316 130.184 22.6649 127.618 22.7587C125.791 22.7341 123.981 23.0872 122.296 23.7952C120.612 24.5031 119.091 25.5507 117.831 26.8731C116.521 28.1458 115.484 29.6715 114.784 31.3583C114.083 33.0449 113.732 34.857 113.755 36.6835C113.706 38.5587 114.03 40.4251 114.71 42.1736Z" fill="#CCAB62"/>
<path d="M196.815 26.4176V50.839L199.713 50.8322V23.6533H183.305V43.9971C183.305 46.9895 181.823 48.0615 178.93 48.0388H178.809L178.766 50.5117H178.893C183.112 50.6045 186.087 49.2768 186.17 44.6183L186.199 26.4176H196.815Z" fill="#CCAB62"/>
<path fill-rule="evenodd" clip-rule="evenodd" d="M205.802 23.2799V50.4596L212.228 50.4579C214.575 50.5786 216.895 49.9243 218.833 48.596C219.747 47.8692 220.474 46.9327 220.949 45.8667C221.425 44.8005 221.636 43.6361 221.566 42.471C221.636 41.3059 221.429 40.1401 220.963 39.0701C220.497 37.9998 219.785 37.0554 218.885 36.3126C216.952 34.945 214.615 34.267 212.25 34.3875H208.696V23.2799H205.802ZM212.25 47.8885H208.696V36.9561H212.25C213.853 36.8828 215.432 37.3647 216.721 38.3199C217.339 38.8165 217.831 39.4523 218.157 40.175C218.482 40.8974 218.631 41.6861 218.594 42.4778C218.634 43.2618 218.48 44.0435 218.146 44.7542C217.813 45.4649 217.31 46.0831 216.682 46.5537C215.4 47.4896 213.836 47.96 212.25 47.8885Z" fill="#CCAB62"/>
<path fill-rule="evenodd" clip-rule="evenodd" d="M170.115 41.7096L173.51 50.4596H176.548L165.874 23.2799H163.512L152.85 50.4596H155.876L159.265 41.7096H170.115ZM169.143 39.1385H160.234L164.688 27.6797L169.143 39.1385Z" fill="#CCAB62"/>
<path d="M146.297 25.928V50.4596H149.191V25.928H155.365V23.2799H140.232V25.928H146.297Z" fill="#CCAB62"/>
<path fill-rule="evenodd" clip-rule="evenodd" d="M338.651 80.6255L345.519 91.9441L349.197 91.9424L340.341 78.2526L349.014 64.767H345.379L338.666 75.8216L332.302 64.767H328.694L336.93 78.2424L328.499 91.8604L317.868 64.7687H315.506L304.832 91.9441H307.863L311.25 83.1941H322.101L325.491 91.9441H332.033L338.651 80.6255ZM321.128 80.6255H312.216L316.675 69.1736L321.128 80.6255Z" fill="#CCAB62"/>
<path fill-rule="evenodd" clip-rule="evenodd" d="M291.77 64.7687V91.9441H294.663V80.5033H297.881C300.21 80.62 302.514 79.9804 304.449 78.6799C305.355 77.9582 306.072 77.0277 306.541 75.9686C307.009 74.9092 307.213 73.7524 307.137 72.5967C307.137 66.7185 303.093 64.7687 297.652 64.7687H291.77ZM297.652 77.9288H294.663V67.3399H297.425C301.184 67.3399 304.018 68.6259 304.018 72.7087C304.018 76.6637 301.304 77.9288 297.652 77.9288Z" fill="#CCAB62"/>
<path d="M272.457 64.7687V91.9441L286.785 91.9501V89.3807H275.352V79.231H285.428V76.6564H275.352V67.3382H286.785V64.7687H272.457Z" fill="#CCAB62"/>
<path fill-rule="evenodd" clip-rule="evenodd" d="M253.06 64.7687V91.9441L259.489 91.939C261.835 92.0599 264.156 91.4075 266.096 90.0822C267.008 89.3548 267.733 88.4189 268.208 87.353C268.683 86.287 268.894 85.1221 268.825 83.9572C268.894 82.7915 268.686 81.6266 268.22 80.5563C267.753 79.4859 267.041 78.5402 266.14 77.7972C264.209 76.4304 261.874 75.7532 259.511 75.8729H255.96V64.7687H253.06ZM259.511 89.3755H255.96V78.4415H259.511C261.113 78.371 262.692 78.8533 263.982 79.8069C264.599 80.304 265.09 80.9391 265.416 81.662C265.741 82.3847 265.89 83.1747 265.853 83.9666C265.892 84.7502 265.739 85.5312 265.407 86.2421C265.075 86.9528 264.574 87.5709 263.948 88.0434C262.661 88.9746 261.098 89.4443 259.511 89.3755Z" fill="#CCAB62"/>
<path fill-rule="evenodd" clip-rule="evenodd" d="M233.982 64.7687V91.9441H236.872V80.5033H240.158C242.49 80.623 244.796 79.9832 246.733 78.6799C247.638 77.957 248.355 77.0266 248.823 75.9677C249.291 74.9086 249.497 73.7522 249.423 72.5967C249.423 66.7185 245.374 64.7687 239.933 64.7687H233.982ZM239.938 77.9288H236.877V67.3399H239.716C243.475 67.3399 246.302 68.6259 246.302 72.7087C246.302 76.6637 243.588 77.9288 239.938 77.9288Z" fill="#CCAB62"/>
<path d="M215.629 64.7687V91.9441L229.959 91.9501V89.3807H218.523V79.231H228.599V76.6564H218.523V67.3382H229.959V64.7687H215.629Z" fill="#CCAB62"/>
<path d="M203.126 67.4134V91.9441L206.033 91.9424V67.4134H211.579V64.767H197.702V67.4134H203.126Z" fill="#CCAB62"/>
<path d="M188.973 79.2327V91.9441H191.873V64.7687H188.973V76.6564H176.172V64.7687H173.279V91.9441H176.172V79.2327H188.973Z" fill="#CCAB62"/>
<path d="M164.023 69.2335V91.9441H166.93V64.7687H163.864L148.659 87.4367V64.7687H145.764V91.9441H148.798L164.023 69.2335Z" fill="#CCAB62"/>
<path fill-rule="evenodd" clip-rule="evenodd" d="M115.5 64.7687V91.9441L121.704 91.9424C127.27 91.9424 131.376 89.9325 131.376 83.9264C131.449 82.4371 131.001 80.9682 130.108 79.7736C129.216 78.5788 127.936 77.7324 126.487 77.3793C127.578 76.976 128.502 76.22 129.114 75.2311C129.726 74.2421 129.99 73.0767 129.864 71.9208C129.959 70.8096 129.76 69.6927 129.286 68.6832C128.813 67.6734 128.082 66.8058 127.167 66.1684C125.184 65.1291 122.957 64.6459 120.721 64.7687H115.5ZM121.51 89.3755H118.316V79.1139H122.001C123.619 79.0118 125.237 79.3395 126.687 80.0641C127.298 80.5756 127.774 81.229 128.073 81.9679C128.372 82.7067 128.486 83.5077 128.403 84.3007C128.403 88.3816 125.079 89.3755 121.51 89.3755ZM121.073 76.5462H118.316V67.3382H120.542C123.674 67.3382 126.969 68.0991 126.969 71.7952C127.04 72.5175 126.93 73.2457 126.649 73.9152C126.369 74.5845 125.926 75.1737 125.361 75.6293C124.043 76.3221 122.559 76.6391 121.073 76.5462Z" fill="#CCAB62"/>
<defs>
<filter id="filter0_d_1_40" x="3.5" y="9.00684" width="102.215" height="99.5007" filterUnits="userSpaceOnUse" color-interpolation-filters="sRGB">
<feFlood flood-opacity="0" result="BackgroundImageFix"/>
<feColorMatrix in="SourceAlpha" type="matrix" values="0 0 0 0 0 0 0 0 0 0 0 0 0 0 0 0 0 0 127 0" result="hardAlpha"/>
<feOffset dx="7" dy="1"/>
<feGaussianBlur stdDeviation="3"/>
<feColorMatrix type="matrix" values="0 0 0 0 0.164706 0 0 0 0 0.101961 0 0 0 0 0.290196 0 0 0 0.502 0"/>
<feBlend mode="normal" in2="BackgroundImageFix" result="effect1_dropShadow_1_40"/>
<feBlend mode="normal" in="SourceGraphic" in2="effect1_dropShadow_1_40" result="shape"/>
</filter>
<linearGradient id="paint0_linear_1_40" x1="78.4406" y1="109.645" x2="19.5286" y2="4.88276" gradientUnits="userSpaceOnUse">
<stop stop-color="#DCC780"/>
<stop offset="1" stop-color="#B68136"/>
</linearGradient>
</defs>
</svg>
