<svg class="logo" xmlns="http://www.w3.org/2000/svg" xmlns:xlink="http://www.w3.org/1999/xlink" width="201.919" height="68"
     viewBox="0 0 201.919 68">
    <defs>
        <style>
            .logo-a{fill:url(#a);}.logo-b{fill:#fff;fill-rule:evenodd;}.logo-c{stroke:rgba(0,0,0,0);fill:url(#d);}.logo-d{filter:url(#b);}
        </style>
        <linearGradient id="a" x1="0.16" y1="-0.093" x2="0.84" y2="1.093" gradientUnits="objectBoundingBox">
            <stop offset="0" stop-color="#dcc780"/>
            <stop offset="1" stop-color="#b68136"/>
        </linearGradient>
        <filter id="b" x="0" y="0" width="68.98" height="68" filterUnits="userSpaceOnUse">
            <feOffset dx="7" dy="1" input="SourceAlpha"/>
            <feGaussianBlur stdDeviation="3" result="c"/>
            <feFlood flood-color="#2a1a4a" flood-opacity="0.502"/>
            <feComposite operator="in" in2="c"/>
            <feComposite in="SourceGraphic"/>
        </filter>
        <linearGradient id="d" x1="0.5" x2="0.5" y2="1" gradientUnits="objectBoundingBox">
            <stop offset="0" stop-color="#dcc780"/>
            <stop offset="0.99" stop-color="#cab573"/>
        </linearGradient>
    </defs>
    <g transform="translate(2 8)">
        <g class="logo-d" transform="matrix(1, 0, 0, 1, -2, -8)">
            <path class="logo-a" d="M0,0H34.12A16.775,16.775,0,0,1,50.98,16.688V50H16.861A16.775,16.775,0,0,1,0,33.312Z"
                  transform="translate(52.98 58) rotate(-180)"/>
        </g>
        <g transform="translate(13.755 13.279)">
            <path class="logo-b"
                  d="M231.007,229.2,220.3,224.9l4.987-1.913.272-.106v-4.9l-6.083-2.5-.245.1q-5.567,2.22-11.128,4.451l-.258.1v4.906l.06.024q5.438,2.176,10.871,4.364l-5.036,1.967-5.866-2.278-.132-.051v5.14l11.777,4.538.242-.094,11.514-4.445v-4.9Zm-11.23-12.94,5.173,2.125v3.842l-5.173-2.126Zm-.3,4.367,4.966,2.041-4.961,1.9-4.869-1.955Zm-.3-4.373V220.1l-5.314,2.163-4.828-1.954Zm-10.718,8.383V220.8l21.691,8.706-4.918,1.87Zm-.1,9.16v-3.847L219.2,234.17l.009,3.817Zm11.158-.159-4.938-1.919,5.023-1.962,4.871,1.956Zm11.159.159-10.846,4.188-.009-3.818,10.855-4.217Z"
                  transform="translate(-207.741 -215.487)"/>
            <path class="logo-b" d="M279.948,226.393v5.145l4.95,2.034v-5.145Zm4.342,6.277-3.734-1.534v-3.842l3.734,1.534Z"
                  transform="translate(-261.395 -223.591)"/>
        </g>
        <g transform="translate(64.693 4.812)">
            <path class="logo-c"
                  d="M12576.744,7736.718l-3.925-6.468-3.781,6.468h-3.738l-1.938-5h-6.2l-1.935,5h-1.733l6.1-15.529h1.349l6.076,15.481,4.817-7.782-4.706-7.7h2.061l3.637,6.317,3.836-6.317h2.077l-4.956,7.706,5.061,7.823Zm-19.03-6.468h5.093l-2.545-6.544Zm-11.684,6.468v-15.529h3.362c3.109,0,5.42,1.114,5.42,4.473a4.1,4.1,0,0,1-1.537,3.476,6.174,6.174,0,0,1-3.753,1.042h-1.838v6.538Zm1.654-8.009h1.708c2.087,0,3.637-.723,3.637-2.983,0-2.333-1.619-3.068-3.767-3.068h-1.578Zm-12.69,8.009v-15.529h8.188v1.468h-6.534v5.325h5.758v1.471h-5.758v5.8h6.534v1.468Zm-11.084,0v-15.529h1.657v6.345h2.03a6.03,6.03,0,0,1,3.788,1.1,4.239,4.239,0,0,1,1.534,3.52,4.16,4.16,0,0,1-1.56,3.5,6.131,6.131,0,0,1-3.775,1.061Zm1.657-1.468h2.03a4.025,4.025,0,0,0,2.535-.761,2.746,2.746,0,0,0,1.089-2.33,2.878,2.878,0,0,0-1.07-2.377,4,4,0,0,0-2.554-.78h-2.03Zm-12.558,1.468v-15.529h3.4c3.109,0,5.423,1.114,5.423,4.473a4.112,4.112,0,0,1-1.537,3.476,6.163,6.163,0,0,1-3.757,1.042h-1.878v6.538Zm1.654-8.009h1.749c2.086,0,3.637-.723,3.637-2.983,0-2.333-1.616-3.068-3.764-3.068h-1.622Zm-12.142,8.009v-15.529h8.189v1.468h-6.535v5.325h5.758v1.471h-5.758v5.8h6.535v1.468Zm-7.144,0V7722.7h-3.1v-1.512h7.93v1.512h-3.169v14.017Zm-8.088,0v-7.264h-7.314v7.264h-1.654v-15.529h1.654v6.793h7.314v-6.793h1.657v15.529Zm-14.257,0V7723.74l-8.7,12.978h-1.733v-15.529h1.654v12.953l8.688-12.953h1.752v15.529Zm-27.727,0v-15.529h2.983a7.1,7.1,0,0,1,3.684.8,3.629,3.629,0,0,1,1.541,3.287,2.981,2.981,0,0,1-1.93,3.119,3.667,3.667,0,0,1,2.794,3.741c0,3.432-2.346,4.581-5.527,4.581Zm1.609-1.468h1.825c2.039,0,3.939-.568,3.939-2.9a2.779,2.779,0,0,0-.981-2.421,5.251,5.251,0,0,0-2.677-.543h-2.106Zm0-7.331h1.575a4.642,4.642,0,0,0,2.45-.524,2.5,2.5,0,0,0,.919-2.191c0-2.112-1.882-2.547-3.672-2.547h-1.272Z"
                  transform="translate(-12444.53 -7696.235)"/>
            <path class="logo-c"
                  d="M12447.568,7734.965a8.07,8.07,0,0,1-2.263-5.819,7.684,7.684,0,0,1,2.329-5.606,7.586,7.586,0,0,1,5.593-2.351,7.449,7.449,0,0,1,7.031,4.313l.057.1h-1.99l-.025-.028a6.074,6.074,0,0,0-5.091-2.75,5.859,5.859,0,0,0-4.391,1.893,6.214,6.214,0,0,0-1.814,4.448,6.614,6.614,0,0,0,1.773,4.611,5.736,5.736,0,0,0,4.432,1.94,6.035,6.035,0,0,0,5.116-2.618l.019-.032h1.972l-.057.107a7.634,7.634,0,0,1-6.943,4.14A7.645,7.645,0,0,1,12447.568,7734.965Zm45.2,2.27v-13.955h-6.067l-.016,10.4c-.047,2.662-1.748,3.421-4.159,3.368h-.072l.025-1.413h.069c1.653.013,2.5-.6,2.5-2.31V7721.7h9.376v15.531Zm5.135-.217v-15.531h1.654v6.347h2.031a6.033,6.033,0,0,1,3.791,1.1,4.235,4.235,0,0,1,1.532,3.519,4.154,4.154,0,0,1-1.561,3.5,6.121,6.121,0,0,1-3.775,1.064Zm1.654-1.469h2.031a3.989,3.989,0,0,0,2.532-.763,2.736,2.736,0,0,0,1.093-2.329,2.877,2.877,0,0,0-1.07-2.376,3.987,3.987,0,0,0-2.555-.779h-2.031Zm-20.107,1.469-1.939-5h-6.2l-1.937,5h-1.729l6.092-15.531h1.35l6.1,15.531Zm-7.586-6.469h5.091l-2.546-6.548Zm-7.964,6.469V7723h-3.465v-1.513h8.647V7723h-3.528v14.018Z"
                  transform="translate(-12445.307 -7721.188)"/>
        </g>
    </g>
</svg>