<svg xmlns="http://www.w3.org/2000/svg" width="24" height="15" viewBox="0 0 24 15">
    <defs>
        <style>.vk:hover{fill:#2687f5;}.invert{fill:#fff;}</style>
    </defs>
<path class="vk inverting" d="M12.145,19.5c3.472,0,2.234-2.2,2.5-2.83,0-.472-.008-.926.008-1.2a5.329,5.329,0,0,1,1.811,1.367c1.655,1.67,2.078,2.665,3.415,2.665h2.461a1.624,1.624,0,0,0,1.389-.594,1.553,1.553,0,0,0,.178-1.438c-.549-1.724-3.751-4.7-3.95-5.015.03-.058.078-.135.1-.175h0c.632-.835,3.044-4.449,3.4-5.895a.019.019,0,0,0,0-.008,1.442,1.442,0,0,0-.166-1.33A1.529,1.529,0,0,0,22,4.5H19.535A1.812,1.812,0,0,0,17.77,5.672a17.374,17.374,0,0,1-3.129,5.09c-.034-1.387-.011-2.446.007-3.233C14.684,5.994,14.8,4.5,13.207,4.5H9.339A1.358,1.358,0,0,0,8.42,6.884c.9,1.134.325,1.766.52,4.912A18.4,18.4,0,0,1,5.872,5.967,1.8,1.8,0,0,0,4.055,4.5H1.594A1.4,1.4,0,0,0,0,5.956C0,8,4.529,19.5,12.145,19.5Z"
      transform="translate(0 -4.5)"/>
</svg>