<svg xmlns="http://www.w3.org/2000/svg" width="16" height="15.999" viewBox="0 0 16 15.999">
  <g id="Сгруппировать_189" data-name="Сгруппировать 189" transform="translate(7036 240)">
    <path id="Контур_76" data-name="Контур 76" d="M3.057,4.456,7.412,2.708V1.387L1.243,3.864M4.334,5a.157.157,0,0,1-.058-.011L.354,3.424a.156.156,0,0,1,0-.29L8.2,0a.157.157,0,0,1,.215.145h0V3.279a.157.157,0,0,1-.11.15L4.392,4.993A.156.156,0,0,1,4.334,5Z" transform="translate(-7036.255 -239.985)"/>
    <path id="Контур_77" data-name="Контур 77" d="M1.02,2001.387v1.32l12.147,4.858,1.726-.611L1.02,2001.387m-.843-1.4a.156.156,0,0,1,.058.011l15.686,6.275a.156.156,0,0,1,0,.29L12,2008.13a.154.154,0,0,1-.116,0l-11.754-4.7a.157.157,0,0,1-.11-.15v-3.137a.157.157,0,0,1,.156-.156Z" transform="translate(-7036.02 -2236.848)"/>
    <path id="Контур_78" data-name="Контур 78" d="M5001.02,6005.171l6.157-2.462v-1.32l-6.157,2.463v1.32m-.843,1.4a.156.156,0,0,1-.145-.1.154.154,0,0,1-.011-.058h0v-3.138a.157.157,0,0,1,.11-.149l7.832-3.133a.156.156,0,0,1,.214.145h0v3.137a.157.157,0,0,1-.109.15l-7.833,3.133A.152.152,0,0,1,5000.177,6006.573Z" transform="translate(-12028.177 -6230.574)"/>
    <path id="Контур_79" data-name="Контур 79" d="M7.177,6005.171v-1.32l-6.157-2.462v1.32l6.157,2.462m.843,1.4a.153.153,0,0,1-.058-.011L.13,6003.429a.157.157,0,0,1-.11-.149v-3.138a.159.159,0,0,1,.011-.058.157.157,0,0,1,.2-.087l7.832,3.133a.158.158,0,0,1,.11.15v3.137a.156.156,0,0,1-.157.156Z" transform="translate(-7036.02 -6230.574)"/>
    <path id="Контур_80" data-name="Контур 80" d="M8001.019,1201.388v1.32l1.451.58v-1.32l-1.451-.58m-.843-1.4a.154.154,0,0,1,.058.011l3.126,1.25a.157.157,0,0,1,.109.15v3.137a.154.154,0,0,1-.012.058.157.157,0,0,1-.2.087l-3.127-1.251a.157.157,0,0,1-.109-.15v-3.137a.153.153,0,0,1,.011-.058A.157.157,0,0,1,8000.176,1199.985Z" transform="translate(-15023.47 -1438.103)"/>
    <path id="Контур_81" data-name="Контур 81" d="M5001.02,1.387v1.32l2.235.894V2.282l-2.235-.894m-.843-1.4a.155.155,0,0,1,.058.011l3.911,1.564a.157.157,0,0,1,.109.15V4.848a.154.154,0,0,1-.012.058.156.156,0,0,1-.2.087l-3.91-1.564a.157.157,0,0,1-.11-.15V.142a.153.153,0,0,1,.011-.058A.157.157,0,0,1,5000.177-.015Z" transform="translate(-12028.177 -239.985)"/>
  </g>
</svg>
