<svg xmlns="http://www.w3.org/2000/svg" xmlns:xlink="http://www.w3.org/1999/xlink" width="24" height="24.005"
     viewBox="0 0 24 24.005">
    <defs>
        <style>.a{fill:url(#a);}</style>
        <linearGradient id="a" x1="0.5" x2="0.5" y2="1" gradientUnits="objectBoundingBox">
            <stop offset="0" stop-color="#f0230d"/>
            <stop offset="1" stop-color="#bd29a9"/>
        </linearGradient>
    </defs>
    <g transform="translate(-416 -288)">
        <path class="a"
              d="M-2634.55-3539.146c-3.21,0-3.641-.013-4.947-.07a8.876,8.876,0,0,1-2.912-.558,5.967,5.967,0,0,1-2.125-1.383,5.911,5.911,0,0,1-1.388-2.129,8.826,8.826,0,0,1-.558-2.911c-.057-1.307-.07-1.738-.07-4.948,0-3.242.014-3.668.075-4.953a8.876,8.876,0,0,1,.557-2.911,5.945,5.945,0,0,1,1.383-2.125,5.86,5.86,0,0,1,2.129-1.388,8.811,8.811,0,0,1,2.912-.558c1.306-.057,1.737-.07,4.948-.07,3.227,0,3.655.014,4.952.075a8.9,8.9,0,0,1,2.912.558,5.942,5.942,0,0,1,2.124,1.383,5.837,5.837,0,0,1,1.388,2.129,8.782,8.782,0,0,1,.558,2.912c.056,1.272.061,1.688.061,4.947,0,3.215-.013,3.645-.07,4.948a8.863,8.863,0,0,1-.558,2.911,6.156,6.156,0,0,1-3.513,3.513,8.849,8.849,0,0,1-2.912.558C-2630.91-3539.159-2631.341-3539.146-2634.55-3539.146Zm0-18.167a6.174,6.174,0,0,0-6.167,6.166,6.174,6.174,0,0,0,6.167,6.167,6.174,6.174,0,0,0,6.167-6.167A6.173,6.173,0,0,0-2634.546-3557.312Zm6.411-1.684a1.442,1.442,0,0,0-1.44,1.44,1.441,1.441,0,0,0,1.44,1.439,1.441,1.441,0,0,0,1.439-1.439A1.441,1.441,0,0,0-2628.135-3559Zm-6.411,11.85a4.005,4.005,0,0,1-4-4,4,4,0,0,1,4-4,4,4,0,0,1,4,4A4,4,0,0,1-2634.546-3547.146Z"
              transform="translate(3062.551 3851.15)"/>
    </g>
</svg>