<svg xmlns="http://www.w3.org/2000/svg" xmlns:xlink="http://www.w3.org/1999/xlink" width="198" height="51.129" viewBox="0 0 198 51.129"><defs><style>.a{clip-path:url(#a);}.b{fill:none;stroke:#6892a8;stroke-linejoin:bevel;stroke-width:10px;stroke-dasharray:0 200;}</style><clipPath id="a"><path d="M-2605.971-2504.871h-.048a.485.485,0,0,1-.149-.04l-24.489-10.006a.5.5,0,0,1-.343-.478v-10.026h0a.52.52,0,0,1,.035-.186.486.486,0,0,1,.637-.277l24.356,9.95,10.95-4.474-35.636-14.561a.5.5,0,0,1-.343-.479v-10.025h0a.515.515,0,0,1,.035-.186.492.492,0,0,1,.251-.269l.011,0h0l.01,0,24.538-10.026.005,0h0l.016-.006h0l.015,0h0l.015,0h0l.014,0h0l.015,0h0l.011,0h.006l.013,0h.014a.476.476,0,0,1,.225.034l12.235,5a.5.5,0,0,1,.342.479v10.026a.507.507,0,0,1-.035.186.487.487,0,0,1-.638.278l-12.085-4.938-10.951,4.475,35.647,14.565a.492.492,0,0,1,.3.287.489.489,0,0,1,.03.12.471.471,0,0,1,0,.067h0v10.026a.5.5,0,0,1-.343.478l-24.483,10a.486.486,0,0,1-.157.043h-.046Zm24.355-30.114-9.781-4a.5.5,0,0,1-.343-.478v-10.026h0a.516.516,0,0,1,.035-.186.488.488,0,0,1,.637-.278l9.78,4a.5.5,0,0,1,.344.479v10.025h0a.512.512,0,0,1-.035.186.49.49,0,0,1-.455.314A.48.48,0,0,1-2581.616-2534.984Z" transform="translate(2631 2556)"/></clipPath></defs><g class="a" transform="translate(1 0)"><path class="b" d="M-3.828,33.53,25.79,45.788l24.94-10.2L.556,15.409,25.79,5.3,58.547,18.341" transform="translate(-1 0.018)"/></g><g transform="translate(-0.02 0.015)"><g transform="translate(0.02 -0.015)"><path d="M2526.015,6005.964l-12.532,5.013a.5.5,0,0,1-.372,0l-12.532-5.013a.5.5,0,0,1,0-.928l12.532-5.013a.5.5,0,0,1,.372,0l12.532,5.013a.5.5,0,0,1,0,.928Zm-12.718,4.01,11.186-4.475-11.186-4.475-11.186,4.475Z" transform="translate(-2487.731 -5969.909)"/><path d="M.57,10.047,25.634.021a.5.5,0,0,1,.686.464h0V10.511a.5.5,0,0,1-.35.478l-12.5,5a.5.5,0,0,1-.372,0L.57,10.975a.5.5,0,0,1,0-.928ZM25.319,1.224,2.1,10.511l11.186,4.474,12.031-4.812Z" transform="translate(-0.254 0.015)"/><path d="M49.3,2020.537,1.022,2001.224v8.949l37.1,14.838Zm-48.6-20.515,50.129,20.052a.5.5,0,0,1,0,.928L38.3,2026.014a.5.5,0,0,1-.372,0L.37,2010.989a.5.5,0,0,1-.35-.478v-10.026h0a.5.5,0,0,1,.686-.464Z" transform="translate(-0.02 -1989.959)"/><path d="M5025.737,6010.99,5000.707,6021a.5.5,0,0,1-.649-.278.49.49,0,0,1-.036-.186h0v-10.026a.5.5,0,0,1,.351-.478l25.029-10.011a.5.5,0,0,1,.686.463h0v10.026A.5.5,0,0,1,5025.737,6010.99Zm-24.713,8.809,24.061-9.625v-8.948l-24.061,9.625Z" transform="translate(-4974.956 -5969.909)"/><path d="M1.023,6010.174l24.062,9.624v-8.948l-24.062-9.625v8.949ZM25.4,6021,.371,6010.99a.5.5,0,0,1-.35-.478v-10.026h0a.5.5,0,0,1,.686-.463l25.029,10.011a.5.5,0,0,1,.35.479v10.025h0a.5.5,0,0,1-.686.464Z" transform="translate(-0.02 -5969.908)"/><path d="M2526.015,2005.963l-12.532,5.013a.5.5,0,0,1-.372,0l-12.532-5.013a.5.5,0,0,1,0-.928l12.532-5.013a.5.5,0,0,1,.372,0l12.532,5.013a.5.5,0,0,1,0,.928Zm-12.718,4.01,11.186-4.474-11.186-4.474-11.186,4.474Z" transform="translate(-2487.731 -1989.961)"/><path d="M8010.044,1204.834l-9.023-3.609v8.949l9.023,3.609Zm-9.338-4.812,9.99,4a.5.5,0,0,1,.351.478v10.026h0a.5.5,0,0,1-.687.464l-9.991-4a.5.5,0,0,1-.35-.478v-10.026h0a.5.5,0,0,1,.687-.464Z" transform="translate(-7959.916 -1193.97)"/><path d="M5012.553,5.836l-11.53-4.612v8.949l11.53,4.612ZM5000.707.021l12.5,5a.5.5,0,0,1,.35.478V15.524h0a.5.5,0,0,1-.687.464l-12.5-5a.5.5,0,0,1-.351-.478V.485h0a.482.482,0,0,1,.036-.186.5.5,0,0,1,.649-.278Z" transform="translate(-4974.955 0.015)"/><path d="M13194.91,961.466a7.385,7.385,0,0,0-5.09-1.976,7.8,7.8,0,1,0,.045,15.607,7.612,7.612,0,0,0,5.045-1.886v-1.318a7.05,7.05,0,0,1-5.09,2.294,6.9,6.9,0,0,1-.021-13.789,6.712,6.712,0,0,1,5.111,2.385Zm10.4-.863v-.909h-8.859v.909h3.932v14.244h1V960.6Zm11.041,14.244h1.092l-6.293-15.607-6.383,15.607h1.088l2.021-4.975h6.453Zm-8.109-5.884,2.885-7.179,2.84,7.179Zm13.494-9.269v9.723c0,1.545,0,3.18-.863,4.066a2.072,2.072,0,0,1-1.479.591,2.965,2.965,0,0,1-.84-.136v.909a4.2,4.2,0,0,0,.91.136,2.967,2.967,0,0,0,2.2-.909c1.068-1.159,1.068-2.976,1.068-4.657V960.6h6.541v14.244h1V959.694Zm12.631,15.152h3.953c3.545,0,4.906-2.2,4.906-4.475,0-3.794-3.385-4.157-5.227-4.157h-2.633v-6.52h-1Zm1-7.724h2.363a6.173,6.173,0,0,1,2.883.454,2.844,2.844,0,0,1,1.568,2.794,3.409,3.409,0,0,1-.955,2.567,4.5,4.5,0,0,1-3.316,1h-2.543Z" transform="translate(-13115.883 -954.431)"/><path d="M13222.74,6051.888h4.158c2.746,0,4.7-1.591,4.7-4.248a3.628,3.628,0,0,0-3.137-3.794,3.691,3.691,0,0,0,1.773-3.316c0-2.271-1.547-3.794-4.182-3.794h-3.316Zm1-14.244h1.932a3.967,3.967,0,0,1,2.521.636,2.941,2.941,0,0,1,1.021,2.362,2.858,2.858,0,0,1-1,2.317,2.917,2.917,0,0,1-2.066.636h-2.408Zm0,6.861h2.363a6.732,6.732,0,0,1,2.838.431,2.763,2.763,0,0,1,1.615,2.817,2.944,2.944,0,0,1-.979,2.317,4.591,4.591,0,0,1-3.293.909h-2.545Zm27.238,7.383h1v-15.311l-10.814,13.017v-12.858h-1v15.539l10.814-13.017Zm6.088-15.152h-1v15.152h1v-7.814h9.178v7.814h1v-15.152h-1v6.429h-9.178Zm21.4.909v-.909h-8.859v.909h3.932v14.244h1v-14.244Zm9.633-.909h-7.27v15.152h7.27v-.908h-6.27v-6.929h6.135v-.909h-6.135v-5.5h6.27Zm6.225,7.951c2.613,0,4.408-1.476,4.408-4,0-2.59-1.953-3.953-4.432-3.953h-2.93v15.152h1v-7.2Zm-1.953-7.042h1.84c2.205,0,3.477,1.181,3.477,3.067a2.993,2.993,0,0,1-3.316,3.066h-2Zm9.133,14.244h3.953c3.543,0,4.906-2.2,4.906-4.475,0-3.793-3.385-4.158-5.225-4.158h-2.635v-6.52h-1Zm1-7.724h2.363a6.178,6.178,0,0,1,2.885.455,2.846,2.846,0,0,1,1.566,2.794,3.416,3.416,0,0,1-.953,2.567,4.5,4.5,0,0,1-3.316,1h-2.545Zm18.217-7.428h-7.268v15.152h7.268v-.908h-6.268v-6.929h6.133v-.909h-6.133v-5.5h6.268Zm6.227,7.951c2.613,0,4.408-1.476,4.408-4,0-2.59-1.955-3.953-4.43-3.953h-2.932v15.152h1v-7.2Zm-1.953-7.042h1.84c2.2,0,3.477,1.181,3.477,3.067a2.994,2.994,0,0,1-3.318,3.066h-2Zm18.082,14.244h1.092l-6.293-15.607-6.385,15.607h1.092l2.021-4.976h6.451Zm-8.109-5.883,2.885-7.18,2.842,7.18Zm10.041,5.883h1.09l3.611-6.815,3.658,6.815h1.092l-4.158-7.724,3.953-7.428h-1.09l-3.455,6.475-3.43-6.475h-1.09l3.977,7.428Z" transform="translate(-13156.457 -6006.021)"/></g></g></svg>