<svg xmlns="http://www.w3.org/2000/svg" width="66" height="92" viewBox="0 0 66 92">
    <defs>
        <style>.a{fill:#008066;}</style>
    </defs>
    <path class="a"
          d="M5318-22420c-1.342,0-4.013-2.365-7.521-6.656a144.56,144.56,0,0,1-11.081-16.01,149.461,149.461,0,0,1-10.03-19.426c-2.9-6.969-4.368-12.658-4.368-16.908a32.8,32.8,0,0,1,2.593-12.846,32.857,32.857,0,0,1,7.072-10.488,32.846,32.846,0,0,1,10.489-7.072A32.782,32.782,0,0,1,5318-22512a32.782,32.782,0,0,1,12.846,2.594,32.859,32.859,0,0,1,10.489,7.072,32.863,32.863,0,0,1,7.072,10.488A32.8,32.8,0,0,1,5351-22479c0,4.25-1.47,9.939-4.368,16.908a149.344,149.344,0,0,1-10.03,19.426,144.585,144.585,0,0,1-11.081,16.01C5322.015-22422.365,5319.344-22420,5318-22420Zm0-76a12.918,12.918,0,0,0-9.193,3.807A12.917,12.917,0,0,0,5305-22483a12.917,12.917,0,0,0,3.807,9.193A12.918,12.918,0,0,0,5318-22470a12.92,12.92,0,0,0,9.193-3.807A12.919,12.919,0,0,0,5331-22483a12.919,12.919,0,0,0-3.807-9.193A12.92,12.92,0,0,0,5318-22496Z"
          transform="translate(-5285.001 22512)"/>
</svg>