<svg xmlns="http://www.w3.org/2000/svg" xmlns:xlink="http://www.w3.org/1999/xlink" width="234" height="464" viewBox="0 0 234 464"><defs><style>.a{fill:#fff;}.b{clip-path:url(#a);}.c{fill:none;stroke:#fff;stroke-linecap:round;stroke-linejoin:round;stroke-width:2px;fill-rule:evenodd;}</style><clipPath id="a"><rect class="a" width="234" height="464" transform="translate(696.717 177.694)"/></clipPath></defs><g class="b" transform="translate(-696.717 -177.694)"><g transform="translate(699.284 178.414)"><g transform="translate(0 0)"><path class="c" d="M538.588,766.923,422.874,813.211,307.16,766.923,422.874,720.64Z" transform="translate(-191.442 -442.921)"/><path class="c" d="M11.81,104.384,243.242,11.81v92.574L127.528,150.672Z" transform="translate(-11.81 -11.81)"/><path class="c" d="M474.674,433.235,11.81,248.09v92.571L358.956,479.519Z" transform="translate(-11.81 -155.516)"/><path class="c" d="M833.932,813.211,602.5,905.785V813.211L833.932,720.64Z" transform="translate(-371.068 -442.921)"/><path class="c" d="M11.81,813.211l231.432,92.574V813.211L11.81,720.64Z" transform="translate(-11.81 -442.921)"/><path class="c" d="M538.588,294.377,422.874,340.661,307.16,294.377,422.874,248.09Z" transform="translate(-191.442 -155.516)"/><path class="c" d="M1049.485,190.609,956.91,153.58v92.571l92.575,37.029Z" transform="translate(-586.62 -98.035)"/><path class="c" d="M718.214,58.1,602.5,11.81v92.574l115.714,46.287Z" transform="translate(-371.068 -11.81)"/></g></g></g></svg>