<svg xmlns="http://www.w3.org/2000/svg" width="100" height="100" viewBox="0 0 100 100"><defs><style>.a{opacity:0.8;}.b{fill:#182638;}.c,.d,.e{fill:none;stroke:#fff;stroke-width:2px;}.d,.e{stroke-linecap:round;}.e{stroke-linejoin:round;}</style></defs><g class="a" transform="translate(13988.14 -9191.86)"><circle class="b" cx="50" cy="50" r="50" transform="translate(-13988.14 9191.86)"/><g transform="translate(-13960.453 9218.61)"><path class="c" d="M-10231.955,10120.7c-1.229-.673-4.129-4.877-5.664-8.611a50.457,50.457,0,0,1-2.5-9.232c-.1-.592-.34-3.584,2.17-4.3s3.146.785,3.383,1.176a6.749,6.749,0,0,1,.617,1.905c.014.349,0-16.065,0-16.577a2.944,2.944,0,0,1,2.918-2.8,2.709,2.709,0,0,1,3.132,2.8c.067,1.234,0,10.166,0,10.408s.364-2.957,3.215-3,2.88,3,2.88,3v4.075c0,.663.18-2.952,3.171-2.952s2.926,3.141,2.926,3.141v3.848c0,.215.433-2.846,3.143-2.949s2.954,2.949,2.954,2.949-.607,6.365-1.168,8.512-1.8,7.566-3.366,8.611S-10230.728,10121.371-10231.955,10120.7Z" transform="translate(10250.3 -10076.106)"/><path class="d" d="M12.118,0A7.389,7.389,0,1,1,.449,3.143" transform="matrix(-0.966, -0.259, 0.259, -0.966, 25.029, 16.448)"/><path class="e" d="M-10351.746,10057.059l-4.231,4.232,4.231,4.23" transform="translate(10355.978 -10053.119)"/><path class="d" d="M-10353.793,10106.075h11.629" transform="translate(10353.984 -10097.851)"/></g></g></svg>