<?xml version="1.0" encoding="UTF-8"?>
<!-- Generator: Adobe Illustrator 23.0.3, SVG Export Plug-In . SVG Version: 6.00 Build 0)  -->
<svg version="1.1" id="Layer_1" xmlns="http://www.w3.org/2000/svg" xmlns:xlink="http://www.w3.org/1999/xlink" x="0px" y="0px" viewBox="0 0 212 58" style="enable-background:new 0 0 212 58;" xml:space="preserve">
<style type="text/css">
	.st0{fill-rule:evenodd;clip-rule:evenodd;fill:#006699;}
	.st1{fill:#006699;}
</style>
<g>
	<path class="st0" d="M37.7,36.1l-19.4-3.9l5.9,5.8l16,0.5L37.7,36.1L37.7,36.1z M56.1,19.1V1.9h9.7v3.5h-6v3.1h5.2v3.5h-5.2v3.4   h6.1v3.6H56.1L56.1,19.1z M46.2,5.1h-0.6v4.7h0.8c0.9,0,1.7-0.2,2.2-0.6c0.5-0.4,0.7-1,0.7-1.8c0-0.8-0.2-1.4-0.7-1.8   C48.1,5.2,47.3,5.1,46.2,5.1L46.2,5.1z M42,19.1V1.9h4c1.3,0,2.3,0.1,3,0.3c0.7,0.2,1.3,0.5,1.9,0.9c0.6,0.5,1,1,1.4,1.7   c0.3,0.7,0.5,1.4,0.5,2.1c0,1.1-0.3,2-0.8,2.8c-0.5,0.8-1.2,1.4-2.2,1.9l4.8,7.4h-4.3l-4.2-6.7h-0.5v6.7H42L42,19.1z M34.6,19.1   V1.9h3.7v17.1H34.6L34.6,19.1z M22.3,19.1V1.9h9.8v3.5h-6v3.4h5.4v3.5h-5.4v6.8H22.3L22.3,19.1z M45.2,27.4c0,0.3,0.1,0.5,0.3,0.7   c0.2,0.2,0.4,0.3,0.7,0.3c0.3,0,0.5-0.1,0.7-0.3c0.2-0.2,0.3-0.4,0.3-0.7c0-0.3-0.1-0.5-0.3-0.7c-0.2-0.2-0.4-0.3-0.7-0.3   c-0.3,0-0.5,0.1-0.7,0.3C45.3,26.9,45.2,27.1,45.2,27.4L45.2,27.4z M46.2,25.1C46.2,25.1,46.2,25.1,46.2,25.1c0.1,0,0.1,0,0.2,0   c0.7,0,1.2,0.2,1.6,0.6c0.4,0.4,0.6,1,0.6,1.7c0,0.7-0.2,1.2-0.7,1.7c-0.5,0.4-1.1,0.7-1.8,0.7c-0.7,0-1.2-0.2-1.7-0.7   c-0.5-0.5-0.7-1.1-0.7-1.8c0-0.6,0.2-1.3,0.6-2c0.4-0.7,1.1-1.5,2-2.3h1.8c-0.5,0.5-0.9,0.9-1.2,1.3C46.7,24.5,46.4,24.8,46.2,25.1   L46.2,25.1z M41.7,25.1c0-0.3-0.1-0.5-0.3-0.7c-0.2-0.2-0.4-0.3-0.7-0.3c-0.3,0-0.5,0.1-0.7,0.3c-0.2,0.2-0.3,0.4-0.3,0.7   c0,0.3,0.1,0.5,0.3,0.7c0.2,0.2,0.4,0.3,0.7,0.3c0.3,0,0.5-0.1,0.7-0.3C41.6,25.6,41.7,25.4,41.7,25.1L41.7,25.1z M40.7,27.4   C40.7,27.4,40.7,27.4,40.7,27.4c-0.1,0-0.2,0-0.2,0c-0.7,0-1.2-0.2-1.6-0.7c-0.4-0.4-0.6-1-0.6-1.7c0-0.7,0.2-1.2,0.7-1.7   c0.5-0.4,1.1-0.7,1.8-0.7c0.7,0,1.2,0.2,1.7,0.7c0.5,0.5,0.7,1.1,0.7,1.8c0,0.6-0.2,1.3-0.6,2c-0.4,0.7-1.1,1.5-1.9,2.3h-1.8   c0.4-0.5,0.8-0.9,1.1-1.2C40.2,28,40.5,27.7,40.7,27.4L40.7,27.4z M48.6,36.1L68,32.2L62.1,38l-16,0.5L48.6,36.1L48.6,36.1z    M43.1,56.6l11.5-11.3l-11.5-4l-11.5,4L43.1,56.6L43.1,56.6z M55.5,44.4l5.3-5.3l-15.2-0.1l-1.8,1.7L55.5,44.4L55.5,44.4z    M51.9,30.6l32.1-7.9l2.2-2.6L53.5,29l-10.3,7.8L32.8,29L0,20.1l2.2,2.6l32.1,7.9l8.8,8.9L51.9,30.6L51.9,30.6z M51.7,33.1   l22.2-6.7l-4.1,4.1l-20.5,5L51.7,33.1L51.7,33.1z M30.8,44.4l-5.3-5.3l15.2-0.1l1.8,1.7L30.8,44.4L30.8,44.4z M34.6,33.1l-22.2-6.7   l4.1,4.1l20.5,5L34.6,33.1L34.6,33.1z"/>
	<path class="st1" d="M118.4,22.6v6.5h-0.9v-5.7h-3.2v5.7h-0.9v-6.5H118.4L118.4,22.6z M121.8,22.6c0.4,0,0.7,0,1,0.1   c0.3,0.1,0.6,0.2,0.8,0.4c0.2,0.2,0.4,0.4,0.5,0.6c0.1,0.3,0.2,0.5,0.2,0.9c0,0.3-0.1,0.6-0.2,0.9c-0.1,0.3-0.3,0.5-0.5,0.6   c-0.2,0.2-0.5,0.3-0.8,0.4c-0.3,0.1-0.6,0.1-1,0.1h-1.3v2.4h-0.9v-6.5H121.8L121.8,22.6z M120.6,26h1.1c0.5,0,1-0.1,1.2-0.3   c0.3-0.2,0.4-0.5,0.4-1c0-0.4-0.1-0.8-0.4-1c-0.3-0.2-0.7-0.3-1.2-0.3h-1.1V26L120.6,26z M131.8,25.9c0,0.5-0.1,1-0.3,1.4   c-0.2,0.4-0.4,0.8-0.7,1.1c-0.3,0.3-0.7,0.5-1.1,0.7c-0.4,0.2-0.8,0.2-1.3,0.2c-0.5,0-0.9-0.1-1.3-0.2c-0.4-0.2-0.8-0.4-1.1-0.7   c-0.3-0.3-0.5-0.7-0.7-1.1c-0.2-0.4-0.3-0.9-0.3-1.4c0-0.5,0.1-1,0.3-1.4c0.2-0.4,0.4-0.8,0.7-1.1c0.3-0.3,0.7-0.5,1.1-0.7   c0.4-0.2,0.8-0.2,1.3-0.2c0.5,0,0.9,0.1,1.3,0.2c0.4,0.2,0.8,0.4,1.1,0.7c0.3,0.3,0.5,0.7,0.7,1.1   C131.8,24.9,131.8,25.4,131.8,25.9L131.8,25.9z M126,25.9c0,0.4,0.1,0.8,0.2,1.1c0.1,0.3,0.3,0.6,0.5,0.8c0.2,0.2,0.5,0.4,0.8,0.5   c0.3,0.1,0.6,0.2,0.9,0.2c0.3,0,0.6-0.1,0.9-0.2c0.3-0.1,0.6-0.3,0.8-0.5c0.2-0.2,0.4-0.5,0.5-0.8c0.1-0.3,0.2-0.7,0.2-1.1   c0-0.4-0.1-0.8-0.2-1.1c-0.1-0.3-0.3-0.6-0.5-0.8c-0.2-0.2-0.5-0.4-0.8-0.5c-0.3-0.1-0.6-0.2-0.9-0.2c-0.3,0-0.6,0.1-0.9,0.2   c-0.3,0.1-0.6,0.3-0.8,0.5c-0.2,0.2-0.4,0.5-0.5,0.8C126.1,25.1,126,25.5,126,25.9L126,25.9z M132.5,22.6h4.6v0.8h-1.9v5.7h-0.9   v-5.7h-1.9V22.6L132.5,22.6z M139,22.6v5.2h0l3.7-5.2h0.9v6.5h-0.9v-5h0l-3.6,5h-0.9v-6.5H139L139,22.6z M147,22.6   c0.3,0,0.6,0,0.8,0.1c0.3,0.1,0.5,0.2,0.7,0.3c0.2,0.1,0.3,0.3,0.5,0.5c0.1,0.2,0.2,0.5,0.2,0.8c0,0.3,0,0.5-0.1,0.7   c-0.1,0.2-0.3,0.4-0.5,0.5v0c0.7,0.4,1.1,0.9,1.1,1.7c0,0.3-0.1,0.6-0.2,0.8c-0.1,0.2-0.3,0.4-0.5,0.6c-0.2,0.2-0.4,0.3-0.7,0.4   c-0.3,0.1-0.5,0.1-0.8,0.1h-2.5v-6.5H147L147,22.6z M145.7,28.3h1.5c0.2,0,0.4,0,0.5-0.1c0.2,0,0.3-0.1,0.4-0.2   c0.1-0.1,0.2-0.2,0.3-0.3c0.1-0.1,0.1-0.3,0.1-0.5c0-0.4-0.1-0.7-0.4-0.9c-0.2-0.2-0.6-0.3-0.9-0.3h-1.6V28.3L145.7,28.3z    M145.7,25.3h1.4c0.4,0,0.6-0.1,0.8-0.3c0.2-0.2,0.3-0.4,0.3-0.7c0-0.3-0.1-0.6-0.3-0.7c-0.2-0.2-0.5-0.2-0.8-0.2h-1.4V25.3   L145.7,25.3z M157,25.9c0,0.5-0.1,1-0.3,1.4c-0.2,0.4-0.4,0.8-0.7,1.1c-0.3,0.3-0.7,0.5-1.1,0.7c-0.4,0.2-0.8,0.2-1.3,0.2   c-0.5,0-0.9-0.1-1.3-0.2c-0.4-0.2-0.8-0.4-1.1-0.7c-0.3-0.3-0.5-0.7-0.7-1.1c-0.2-0.4-0.3-0.9-0.3-1.4c0-0.5,0.1-1,0.3-1.4   c0.2-0.4,0.4-0.8,0.7-1.1c0.3-0.3,0.7-0.5,1.1-0.7c0.4-0.2,0.8-0.2,1.3-0.2c0.5,0,0.9,0.1,1.3,0.2c0.4,0.2,0.8,0.4,1.1,0.7   c0.3,0.3,0.5,0.7,0.7,1.1C157,24.9,157,25.4,157,25.9L157,25.9z M151.2,25.9c0,0.4,0.1,0.8,0.2,1.1c0.1,0.3,0.3,0.6,0.5,0.8   c0.2,0.2,0.5,0.4,0.8,0.5c0.3,0.1,0.6,0.2,0.9,0.2c0.3,0,0.6-0.1,0.9-0.2c0.3-0.1,0.6-0.3,0.8-0.5c0.2-0.2,0.4-0.5,0.5-0.8   c0.1-0.3,0.2-0.7,0.2-1.1c0-0.4-0.1-0.8-0.2-1.1c-0.1-0.3-0.3-0.6-0.5-0.8c-0.2-0.2-0.5-0.4-0.8-0.5c-0.3-0.1-0.6-0.2-0.9-0.2   c-0.3,0-0.6,0.1-0.9,0.2c-0.3,0.1-0.6,0.3-0.8,0.5c-0.2,0.2-0.4,0.5-0.5,0.8C151.3,25.1,151.2,25.5,151.2,25.9L151.2,25.9z    M163,22.6v6.5h-0.9v-5.7H159v5.7h-0.9v-6.5H163L163,22.6z M170.8,25.9c0,0.5-0.1,1-0.3,1.4c-0.2,0.4-0.4,0.8-0.7,1.1   c-0.3,0.3-0.7,0.5-1.1,0.7c-0.4,0.2-0.8,0.2-1.3,0.2c-0.5,0-0.9-0.1-1.3-0.2c-0.4-0.2-0.8-0.4-1.1-0.7c-0.3-0.3-0.5-0.7-0.7-1.1   c-0.2-0.4-0.3-0.9-0.3-1.4c0-0.5,0.1-1,0.3-1.4c0.2-0.4,0.4-0.8,0.7-1.1c0.3-0.3,0.7-0.5,1.1-0.7c0.4-0.2,0.8-0.2,1.3-0.2   c0.5,0,0.9,0.1,1.3,0.2c0.4,0.2,0.8,0.4,1.1,0.7c0.3,0.3,0.5,0.7,0.7,1.1C170.7,24.9,170.8,25.4,170.8,25.9L170.8,25.9z M165,25.9   c0,0.4,0.1,0.8,0.2,1.1c0.1,0.3,0.3,0.6,0.5,0.8c0.2,0.2,0.5,0.4,0.8,0.5c0.3,0.1,0.6,0.2,0.9,0.2c0.3,0,0.6-0.1,0.9-0.2   c0.3-0.1,0.6-0.3,0.8-0.5c0.2-0.2,0.4-0.5,0.5-0.8c0.1-0.3,0.2-0.7,0.2-1.1c0-0.4-0.1-0.8-0.2-1.1c-0.1-0.3-0.3-0.6-0.5-0.8   c-0.2-0.2-0.5-0.4-0.8-0.5c-0.3-0.1-0.6-0.2-0.9-0.2c-0.3,0-0.6,0.1-0.9,0.2c-0.3,0.1-0.6,0.3-0.8,0.5c-0.2,0.2-0.4,0.5-0.5,0.8   C165,25.1,165,25.5,165,25.9L165,25.9z M176.4,22.6v2.4h1l0.8-1.7c0.1-0.3,0.3-0.5,0.5-0.6c0.2-0.1,0.5-0.2,0.7-0.2   c0.2,0,0.4,0,0.7,0.1l-0.1,0.8c-0.1,0-0.2,0-0.3,0c-0.2,0-0.3,0-0.5,0.1c-0.1,0.1-0.3,0.2-0.4,0.4l-0.7,1.5l2.2,3.7h-1l-1.9-3.3h-1   v3.3h-0.9v-3.3h-1l-1.9,3.3h-1l2.2-3.7l-0.7-1.5c-0.1-0.2-0.2-0.3-0.4-0.4c-0.1-0.1-0.3-0.1-0.5-0.1c-0.1,0-0.2,0-0.3,0l-0.1-0.8   c0.2-0.1,0.4-0.1,0.7-0.1c0.3,0,0.5,0.1,0.7,0.2c0.2,0.1,0.4,0.3,0.5,0.6l0.8,1.7h1v-2.4H176.4L176.4,22.6z M184.7,22.6l2.7,6.5   h-0.9l-0.8-2h-2.9l-0.8,2h-0.9l2.7-6.5H184.7L184.7,22.6z M183.1,26.4h2.3l-1.1-2.8h-0.1L183.1,26.4L183.1,26.4z M190.4,22.6   c0.4,0,0.7,0,1,0.1c0.3,0.1,0.6,0.2,0.8,0.4c0.2,0.2,0.4,0.4,0.5,0.6c0.1,0.3,0.2,0.5,0.2,0.9c0,0.3-0.1,0.6-0.2,0.9   c-0.1,0.3-0.3,0.5-0.5,0.6c-0.2,0.2-0.5,0.3-0.8,0.4c-0.3,0.1-0.6,0.1-1,0.1h-1.3v2.4h-0.9v-6.5H190.4L190.4,22.6z M189.2,26h1.1   c0.5,0,1-0.1,1.2-0.3c0.3-0.2,0.4-0.5,0.4-1c0-0.4-0.1-0.8-0.4-1c-0.3-0.2-0.7-0.3-1.2-0.3h-1.1V26L189.2,26z M199.1,22.6v6.5h-0.9   v-3h-3.3v3H194v-6.5h0.9v2.7h3.3v-2.7H199.1L199.1,22.6z M206.8,25.9c0,0.5-0.1,1-0.3,1.4c-0.2,0.4-0.4,0.8-0.7,1.1   c-0.3,0.3-0.7,0.5-1.1,0.7c-0.4,0.2-0.8,0.2-1.3,0.2c-0.5,0-0.9-0.1-1.3-0.2c-0.4-0.2-0.8-0.4-1.1-0.7s-0.5-0.7-0.7-1.1   c-0.2-0.4-0.3-0.9-0.3-1.4c0-0.5,0.1-1,0.3-1.4c0.2-0.4,0.4-0.8,0.7-1.1c0.3-0.3,0.7-0.5,1.1-0.7c0.4-0.2,0.8-0.2,1.3-0.2   c0.5,0,0.9,0.1,1.3,0.2c0.4,0.2,0.8,0.4,1.1,0.7c0.3,0.3,0.5,0.7,0.7,1.1C206.8,24.9,206.8,25.4,206.8,25.9L206.8,25.9z M201,25.9   c0,0.4,0.1,0.8,0.2,1.1c0.1,0.3,0.3,0.6,0.5,0.8c0.2,0.2,0.5,0.4,0.8,0.5c0.3,0.1,0.6,0.2,0.9,0.2s0.6-0.1,0.9-0.2   c0.3-0.1,0.6-0.3,0.8-0.5c0.2-0.2,0.4-0.5,0.5-0.8c0.1-0.3,0.2-0.7,0.2-1.1c0-0.4-0.1-0.8-0.2-1.1c-0.1-0.3-0.3-0.6-0.5-0.8   c-0.2-0.2-0.5-0.4-0.8-0.5c-0.3-0.1-0.6-0.2-0.9-0.2s-0.6,0.1-0.9,0.2c-0.3,0.1-0.6,0.3-0.8,0.5c-0.2,0.2-0.4,0.5-0.5,0.8   C201.1,25.1,201,25.5,201,25.9L201,25.9z M207.9,22.6h4v0.8h-3.1v1.9h2.8v0.8h-2.8v2.2h3.2v0.8h-4.1V22.6L207.9,22.6z"/>
	<polygon class="st1" points="100.1,49 100.1,12.8 100.8,12.8 100.8,49 100.1,49  "/>
	<path class="st1" d="M119.7,36.2c0,0.5-0.1,1-0.3,1.4c-0.2,0.4-0.4,0.8-0.7,1.1c-0.3,0.3-0.7,0.5-1.1,0.7c-0.4,0.2-0.8,0.2-1.3,0.2   c-0.5,0-0.9-0.1-1.3-0.2c-0.4-0.2-0.7-0.4-1-0.7c-0.3-0.3-0.5-0.7-0.7-1.1c-0.2-0.4-0.3-0.9-0.3-1.4c0-0.5,0.1-1,0.3-1.4   c0.2-0.4,0.4-0.8,0.7-1.1c0.3-0.3,0.6-0.5,1-0.7c0.4-0.2,0.8-0.2,1.3-0.2c0.5,0,0.9,0.1,1.3,0.2c0.4,0.2,0.8,0.4,1.1,0.7   c0.3,0.3,0.5,0.7,0.7,1.1C119.6,35.2,119.7,35.7,119.7,36.2L119.7,36.2z M114,36.2c0,0.4,0.1,0.8,0.2,1.1c0.1,0.3,0.3,0.6,0.5,0.8   c0.2,0.2,0.5,0.4,0.8,0.5c0.3,0.1,0.6,0.2,0.9,0.2c0.3,0,0.6-0.1,0.9-0.2c0.3-0.1,0.5-0.3,0.8-0.5c0.2-0.2,0.4-0.5,0.5-0.8   c0.1-0.3,0.2-0.7,0.2-1.1c0-0.4-0.1-0.8-0.2-1.1c-0.1-0.3-0.3-0.6-0.5-0.8c-0.2-0.2-0.5-0.4-0.8-0.5c-0.3-0.1-0.6-0.2-0.9-0.2   c-0.3,0-0.6,0.1-0.9,0.2c-0.3,0.1-0.5,0.3-0.8,0.5c-0.2,0.2-0.4,0.5-0.5,0.8C114,35.4,114,35.8,114,36.2L114,36.2z M124.8,33v0.8   h-3.2v1.7h1.3c0.4,0,0.7,0,1,0.1c0.3,0.1,0.5,0.2,0.7,0.4c0.2,0.2,0.4,0.4,0.5,0.6c0.1,0.2,0.2,0.5,0.2,0.9c0,0.3-0.1,0.6-0.2,0.9   c-0.1,0.2-0.3,0.5-0.5,0.6c-0.2,0.2-0.5,0.3-0.7,0.4c-0.3,0.1-0.6,0.1-1,0.1h-2.2V33H124.8L124.8,33z M121.6,38.7h1.2   c0.5,0,0.9-0.1,1.2-0.3c0.2-0.2,0.4-0.5,0.4-0.9c0-0.5-0.1-0.8-0.4-1c-0.3-0.2-0.7-0.3-1.2-0.3h-1.2V38.7L121.6,38.7z M132.7,36.2   c0,0.5-0.1,1-0.3,1.4c-0.2,0.4-0.4,0.8-0.7,1.1c-0.3,0.3-0.7,0.5-1.1,0.7c-0.4,0.2-0.8,0.2-1.3,0.2c-0.5,0-0.9-0.1-1.3-0.2   c-0.4-0.2-0.7-0.4-1-0.7c-0.3-0.3-0.5-0.7-0.7-1.1c-0.2-0.4-0.3-0.9-0.3-1.4c0-0.5,0.1-1,0.3-1.4c0.2-0.4,0.4-0.8,0.7-1.1   c0.3-0.3,0.6-0.5,1-0.7c0.4-0.2,0.8-0.2,1.3-0.2c0.5,0,0.9,0.1,1.3,0.2c0.4,0.2,0.8,0.4,1.1,0.7c0.3,0.3,0.5,0.7,0.7,1.1   C132.6,35.2,132.7,35.7,132.7,36.2L132.7,36.2z M127,36.2c0,0.4,0.1,0.8,0.2,1.1c0.1,0.3,0.3,0.6,0.5,0.8c0.2,0.2,0.5,0.4,0.8,0.5   c0.3,0.1,0.6,0.2,0.9,0.2c0.3,0,0.6-0.1,0.9-0.2c0.3-0.1,0.5-0.3,0.8-0.5c0.2-0.2,0.4-0.5,0.5-0.8c0.1-0.3,0.2-0.7,0.2-1.1   c0-0.4-0.1-0.8-0.2-1.1c-0.1-0.3-0.3-0.6-0.5-0.8c-0.2-0.2-0.5-0.4-0.8-0.5c-0.3-0.1-0.6-0.2-0.9-0.2c-0.3,0-0.6,0.1-0.9,0.2   c-0.3,0.1-0.5,0.3-0.8,0.5c-0.2,0.2-0.4,0.5-0.5,0.8C127,35.4,127,35.8,127,36.2L127,36.2z M135.8,33c0.3,0,0.7,0,1,0.1   c0.3,0.1,0.6,0.2,0.8,0.4c0.2,0.2,0.4,0.4,0.5,0.6c0.1,0.3,0.2,0.5,0.2,0.9c0,0.3-0.1,0.6-0.2,0.9c-0.1,0.3-0.3,0.5-0.5,0.6   c-0.2,0.2-0.5,0.3-0.8,0.4c-0.3,0.1-0.6,0.1-1,0.1h-1.2v2.4h-0.9V33H135.8L135.8,33z M134.6,36.3h1.1c0.5,0,0.9-0.1,1.2-0.3   c0.3-0.2,0.4-0.5,0.4-1c0-0.4-0.1-0.8-0.4-1c-0.3-0.2-0.7-0.3-1.2-0.3h-1.1V36.3L134.6,36.3z M139.9,33l2.1,5.2h0.1L144,33h0.9   l-2.2,6c-0.1,0.3-0.2,0.5-0.3,0.8c-0.1,0.2-0.3,0.4-0.4,0.6c-0.1,0.1-0.3,0.3-0.5,0.3c-0.2,0.1-0.4,0.1-0.6,0.1   c-0.2,0-0.3,0-0.5-0.1c-0.1,0-0.3-0.1-0.4-0.2l0.2-0.7c0.1,0.1,0.2,0.1,0.3,0.1c0.1,0,0.2,0,0.3,0c0.2,0,0.4-0.1,0.5-0.2   c0.2-0.1,0.3-0.3,0.4-0.6l-2.7-6.2H139.9L139.9,33z M151.1,33v5.7h0.7l-0.1,2.2H151l-0.1-1.4h-4.6l-0.1,1.4h-0.7v-2.2   c0.1,0,0.2-0.1,0.3-0.1c0.1,0,0.2-0.1,0.3-0.2c0.2-0.1,0.3-0.3,0.4-0.6c0.1-0.2,0.2-0.5,0.3-0.8c0.1-0.3,0.1-0.6,0.2-0.9   c0-0.3,0.1-0.7,0.1-1.1V33H151.1L151.1,33z M147.7,33.7v1.2c0,0.9-0.1,1.6-0.2,2.3c-0.2,0.7-0.4,1.1-0.7,1.5h3.4v-4.9H147.7   L147.7,33.7z M159.1,36.2c0,0.5-0.1,1-0.3,1.4c-0.2,0.4-0.4,0.8-0.7,1.1c-0.3,0.3-0.7,0.5-1.1,0.7c-0.4,0.2-0.8,0.2-1.3,0.2   c-0.5,0-0.9-0.1-1.3-0.2c-0.4-0.2-0.7-0.4-1-0.7c-0.3-0.3-0.5-0.7-0.7-1.1c-0.2-0.4-0.3-0.9-0.3-1.4c0-0.5,0.1-1,0.3-1.4   c0.2-0.4,0.4-0.8,0.7-1.1c0.3-0.3,0.6-0.5,1-0.7c0.4-0.2,0.8-0.2,1.3-0.2c0.5,0,0.9,0.1,1.3,0.2c0.4,0.2,0.8,0.4,1.1,0.7   c0.3,0.3,0.5,0.7,0.7,1.1C159,35.2,159.1,35.7,159.1,36.2L159.1,36.2z M153.3,36.2c0,0.4,0.1,0.8,0.2,1.1c0.1,0.3,0.3,0.6,0.5,0.8   c0.2,0.2,0.5,0.4,0.8,0.5c0.3,0.1,0.6,0.2,0.9,0.2c0.3,0,0.6-0.1,0.9-0.2c0.3-0.1,0.5-0.3,0.8-0.5c0.2-0.2,0.4-0.5,0.5-0.8   s0.2-0.7,0.2-1.1c0-0.4-0.1-0.8-0.2-1.1c-0.1-0.3-0.3-0.6-0.5-0.8c-0.2-0.2-0.5-0.4-0.8-0.5c-0.3-0.1-0.6-0.2-0.9-0.2   c-0.3,0-0.6,0.1-0.9,0.2c-0.3,0.1-0.5,0.3-0.8,0.5c-0.2,0.2-0.4,0.5-0.5,0.8C153.4,35.4,153.3,35.8,153.3,36.2L153.3,36.2z    M162.2,33c0.3,0,0.6,0,0.8,0.1c0.3,0.1,0.5,0.2,0.7,0.3c0.2,0.1,0.3,0.3,0.5,0.5c0.1,0.2,0.2,0.5,0.2,0.8c0,0.3,0,0.5-0.1,0.7   c-0.1,0.2-0.3,0.4-0.5,0.5v0c0.7,0.4,1.1,0.9,1.1,1.7c0,0.3-0.1,0.6-0.2,0.8c-0.1,0.2-0.3,0.4-0.5,0.6c-0.2,0.2-0.4,0.3-0.7,0.4   c-0.3,0.1-0.5,0.1-0.8,0.1h-2.5V33H162.2L162.2,33z M160.9,38.7h1.5c0.2,0,0.3,0,0.5-0.1c0.2,0,0.3-0.1,0.4-0.2   c0.1-0.1,0.2-0.2,0.3-0.3c0.1-0.1,0.1-0.3,0.1-0.5c0-0.4-0.1-0.7-0.4-0.9c-0.2-0.2-0.6-0.3-0.9-0.3h-1.6V38.7L160.9,38.7z    M161,35.7h1.4c0.3,0,0.6-0.1,0.8-0.3c0.2-0.2,0.3-0.4,0.3-0.7c0-0.3-0.1-0.6-0.3-0.7c-0.2-0.2-0.5-0.2-0.8-0.2H161V35.7L161,35.7z    M169,33l2.6,6.5h-0.9l-0.8-2H167l-0.8,2h-0.9L168,33H169L169,33z M167.3,36.7h2.3l-1.1-2.8h-0.1L167.3,36.7L167.3,36.7z M177.5,33   v6.5h-0.9v-3h-3.3v3h-0.9V33h0.9v2.7h3.3V33H177.5L177.5,33z M179.6,33v5.2h0l3.7-5.2h0.8v6.5h-0.9v-5h0l-3.6,5h-0.9V33H179.6   L179.6,33z M185.4,33h4v0.8h-3.1v1.9h2.7v0.8h-2.7v2.2h3.2v0.8h-4.1V33L185.4,33z"/>
</g>
</svg>